<?xml version="1.0" encoding="UTF-8"?>
<svg version="1.1" xmlns="http://www.w3.org/2000/svg" width="209" height="278">
<path d="M0 0 C4.19378482 1.10439577 8.19189311 2.53207194 12.2421875 4.07421875 C13.07500244 4.38665527 13.90781738 4.6990918 14.76586914 5.02099609 C16.47607535 5.66303526 18.18546991 6.30724059 19.89404297 6.95361328 C22.17480806 7.81413492 24.45922192 8.66367926 26.74609375 9.5078125 C32.5625203 11.66252485 38.32069454 13.86359708 44.0234375 16.3046875 C50.377017 18.96814465 56.84753046 21.05590042 63.4296875 23.07421875 C65.63025806 23.7508273 67.82954657 24.43162387 70.02734375 25.1171875 C70.98261963 25.41004639 71.93789551 25.70290527 72.92211914 26.00463867 C75.3671875 26.88671875 75.3671875 26.88671875 78.3671875 28.88671875 C78.19702148 30.77539063 78.19702148 30.77539063 77.3671875 32.88671875 C75.08227539 33.91992188 75.08227539 33.91992188 72.08984375 34.66796875 C71.01927734 34.95285156 69.94871094 35.23773438 68.84570312 35.53125 C67.71841797 35.81355469 66.59113281 36.09585938 65.4296875 36.38671875 C63.20848144 36.94488757 60.99076201 37.51717598 58.77734375 38.10546875 C57.78871338 38.35232422 56.80008301 38.59917969 55.78149414 38.85351562 C53.21847916 39.68094181 53.21847916 39.68094181 52.02905273 41.99804688 C51.70142944 42.93293945 51.70142944 42.93293945 51.3671875 43.88671875 C52.0684375 44.56734375 52.7696875 45.24796875 53.4921875 45.94921875 C56.64084419 49.1154657 59.54375701 52.4280164 62.3671875 55.88671875 C63.37265625 57.09908203 63.37265625 57.09908203 64.3984375 58.3359375 C82.68646673 81.42135468 91.13988924 107.52409567 88.3671875 136.88671875 C87.02898858 143.94885896 84.36957372 150.38916647 81.3671875 156.88671875 C81.0465332 157.61842285 80.72587891 158.35012695 80.39550781 159.10400391 C76.71447116 167.46982574 72.52190237 174.57719769 66.45703125 181.4921875 C64.57214362 183.65188117 62.93828931 185.8484259 61.3046875 188.19921875 C58.78334042 191.60476426 56.01056322 193.91214594 52.55078125 196.33203125 C50.15891394 198.03500655 47.93539382 199.8825728 45.6796875 201.76171875 C40.44986207 205.96311815 34.89350337 209.42218296 29.12646484 212.83496094 C27.31471725 213.91808731 25.52174072 215.02790656 23.73046875 216.14453125 C-3.59016042 233.07936963 -37.91589636 245.12534151 -69.6328125 249.88671875 C-70.88320312 250.0878125 -72.13359375 250.28890625 -73.421875 250.49609375 C-78.88270205 251.3327422 -84.0996368 251.99488609 -89.6328125 251.88671875 C-89.9628125 250.56671875 -90.2928125 249.24671875 -90.6328125 247.88671875 C-87.6628125 246.89671875 -84.6928125 245.90671875 -81.6328125 244.88671875 C-81.6328125 244.22671875 -81.6328125 243.56671875 -81.6328125 242.88671875 C-80.859375 242.5721875 -80.0859375 242.25765625 -79.2890625 241.93359375 C-78.2475 241.505625 -77.2059375 241.07765625 -76.1328125 240.63671875 C-74.60140625 240.01023438 -74.60140625 240.01023438 -73.0390625 239.37109375 C-69.87880113 237.99391563 -66.82152987 236.5017505 -63.74853516 234.94433594 C-60.83610903 233.48845895 -57.88615395 232.11810324 -54.93554688 230.74169922 C-42.72327945 225.03642234 -30.8834678 219.0354983 -19.53222656 211.74658203 C-16.71963958 209.942415 -13.89377655 208.16137765 -11.0625 206.38671875 C-10.14597656 205.80921875 -9.22945313 205.23171875 -8.28515625 204.63671875 C-6.42799816 203.46652631 -4.5686032 202.29987668 -2.70703125 201.13671875 C4.99167602 196.27209131 12.22601413 191.00314273 18.9296875 184.82421875 C21.62579328 182.37999829 24.3232779 180.15761341 27.3046875 178.07421875 C41.09661221 167.83973494 51.9756303 150.06139035 57.3671875 133.88671875 C60.58130894 105.07866734 51.74956278 81.1227612 36.3671875 56.88671875 C31.58210029 57.90186815 30.05116994 60.15390969 27.171875 64.015625 C23.4905635 69.87225693 21.05834399 76.37922299 18.63476562 82.83886719 C17.96058374 84.55584208 17.17051198 86.22623877 16.3671875 87.88671875 C14.8821875 88.38171875 14.8821875 88.38171875 13.3671875 88.88671875 C12.07879013 83.33089789 10.94294156 77.75659073 9.88671875 72.15234375 C6.65216937 55.0307925 3.15782908 38.04701764 -1.0546875 21.13671875 C-1.31056641 20.10289063 -1.56644531 19.0690625 -1.83007812 18.00390625 C-2.3889897 15.83353428 -2.98430377 13.67234812 -3.60742188 11.51953125 C-3.90970703 10.44445312 -4.21199219 9.369375 -4.5234375 8.26171875 C-4.80735352 7.30007812 -5.09126953 6.3384375 -5.38378906 5.34765625 C-5.6328125 2.88671875 -5.6328125 2.88671875 -4.36669922 1.04370117 C-2.6328125 -0.11328125 -2.6328125 -0.11328125 0 0 Z " fill="#C2A562" transform="translate(111.6328125,13.11328125)"/>
<path d="M0 0 C3.29707824 0.21163678 4.68839213 0.69193313 7.0625 3.0390625 C7.701875 3.89242188 8.34125 4.74578125 9 5.625 C9.68191406 6.52992187 10.36382812 7.43484375 11.06640625 8.3671875 C12.02353516 9.67042969 12.02353516 9.67042969 13 11 C13.52464844 11.66257812 14.04929687 12.32515625 14.58984375 13.0078125 C19.18655172 18.95022338 19.15077436 24.63406495 19.0957489 31.89428711 C19.09393091 32.67105521 19.09211291 33.44782331 19.09023982 34.24812984 C19.08288132 36.8412436 19.06818767 39.43426212 19.0534668 42.02734375 C19.04659388 43.89038955 19.04014505 45.75343696 19.03408813 47.6164856 C19.0161903 52.67012131 18.9916283 57.72370357 18.96532798 62.77730179 C18.94381731 66.99711673 18.92516901 71.21694258 18.90639621 75.43677044 C18.86190921 85.39114363 18.81161967 95.34547657 18.75805664 105.29980469 C18.70293072 115.56876077 18.65894495 125.83772353 18.62020558 136.10675335 C18.58646649 144.92561842 18.54514202 153.74442664 18.49788028 162.56322956 C18.46977698 167.82940896 18.44471434 173.09555962 18.4272213 178.36178589 C18.41050056 183.31287863 18.38433648 188.26383267 18.35091019 193.21483994 C18.34024443 195.03127246 18.33293768 196.8477283 18.32924461 198.66418839 C18.32367418 201.14484914 18.30595299 203.62513931 18.28520203 206.10571289 C18.28708095 207.1822785 18.28708095 207.1822785 18.28899783 208.28059292 C18.23755112 212.54601888 17.67305031 216.06677304 16 220 C12.00683453 223.26713538 6.87244212 224.50323673 2 226 C-0.83361505 223.58150456 -0.98338683 223.17122546 -1.3719368 219.16659355 C-1.38589623 217.51711646 -1.38304652 215.86744989 -1.36749268 214.21798706 C-1.37076152 213.30958073 -1.37403036 212.4011744 -1.37739825 211.4652406 C-1.38470514 208.40878823 -1.37049683 205.35281013 -1.35644531 202.29638672 C-1.3572358 200.11040159 -1.35933188 197.9244166 -1.36264038 195.73843384 C-1.36778509 189.79238627 -1.35421833 183.84651106 -1.33711338 177.90049124 C-1.32210971 171.68961594 -1.3232522 165.47874317 -1.32244873 159.26785278 C-1.3187534 148.83853315 -1.30386235 138.40927514 -1.28125 127.97998047 C-1.25798025 117.23974056 -1.24382379 106.49954226 -1.24023438 95.75927734 C-1.24001161 95.0975179 -1.23978884 94.43575845 -1.23955932 93.75394569 C-1.23934 93.09335042 -1.23912067 92.43275515 -1.2388947 91.75214183 C-1.23462725 78.91946366 -1.2226956 66.08680293 -1.20722103 53.2541337 C-1.20311457 49.54526578 -1.20019277 45.83639828 -1.19742584 42.12752914 C-1.19254664 36.31145264 -1.18236669 30.49540853 -1.16798782 24.67934799 C-1.16345023 22.53829236 -1.16062273 20.39723236 -1.15958023 18.25617218 C-1.15784511 15.3467637 -1.14999043 12.4374374 -1.14044189 9.52804565 C-1.14130838 8.66921433 -1.14217486 7.81038301 -1.1430676 6.9255265 C-1.11420732 1.11420732 -1.11420732 1.11420732 0 0 Z " fill="#D2BF83" transform="translate(29,22)"/>
<path d="M0 0 C5.01441603 0.151952 7.33354746 2.92701329 10.64453125 6.30859375 C12 8 12 8 12 10 C12.61875 10.2475 13.2375 10.495 13.875 10.75 C16.47960172 12.28211866 16.92691489 13.19808219 18 16 C18.25168228 18.82083035 18.25168228 18.82083035 18.25396729 22.14195251 C18.25960693 23.40234848 18.26524658 24.66274445 18.27105713 25.96133423 C18.26716861 27.35565243 18.26307228 28.74997006 18.25878906 30.14428711 C18.26149952 31.61458001 18.26506076 33.08487155 18.26940918 34.55516052 C18.27852976 38.54690145 18.27499009 42.53853904 18.26865101 46.53028178 C18.26358836 50.70798061 18.26828329 54.88567058 18.27142334 59.06336975 C18.27506261 66.08026722 18.27026533 73.09712259 18.26074219 80.11401367 C18.24986194 88.22446759 18.25338023 96.33482092 18.264395 104.44527239 C18.27347404 111.40928887 18.27475 118.3732751 18.26951766 125.33729559 C18.26640081 129.49628794 18.26598071 133.65523303 18.27259064 137.81422234 C18.27837228 141.72533558 18.27435222 145.63631932 18.26280212 149.54741859 C18.26015974 150.98210815 18.26091345 152.41680863 18.26532745 153.85149384 C18.27080078 155.81134652 18.26271703 157.77122305 18.25396729 159.73106384 C18.25321323 160.82741118 18.25245918 161.92375853 18.25168228 163.05332851 C17.88367816 167.36188471 17.00070555 170.08431014 13.79296875 173.01953125 C12.93316406 173.61121094 12.07335937 174.20289063 11.1875 174.8125 C10.33542969 175.41707031 9.48335937 176.02164063 8.60546875 176.64453125 C5.77074413 178.11926805 4.14648838 178.367914 1 178 C-0.8906207 176.1093793 -0.14971549 172.80620904 -0.16494751 170.29421997 C-0.17059105 169.58494413 -0.1762346 168.87566829 -0.18204916 168.14489925 C-0.19985408 165.7504151 -0.21049434 163.35595149 -0.22119141 160.96142578 C-0.23240017 159.25187916 -0.2440321 157.54233526 -0.25605774 155.83279419 C-0.28747004 151.17579553 -0.31254758 146.51878218 -0.3362546 141.86173868 C-0.36178853 136.99707206 -0.39213816 132.1324351 -0.42172241 127.26779175 C-0.47061093 119.09472346 -0.51527876 110.92163981 -0.55761719 102.74853516 C-0.60667265 93.29127958 -0.66297281 83.83408759 -0.72303832 74.37689602 C-0.77433955 66.26906006 -0.82168689 58.16120802 -0.86572587 50.05332935 C-0.89206303 45.20577542 -0.91979518 40.35824011 -0.9510994 35.51071548 C-0.98032084 30.95211976 -1.0045902 26.39352426 -1.02499962 21.83488083 C-1.03331953 20.15907074 -1.04338181 18.4832683 -1.05528831 16.80747986 C-1.07122605 14.5248964 -1.08093391 12.2423701 -1.08901978 9.95974731 C-1.09601709 8.68067568 -1.10301441 7.40160404 -1.11022377 6.08377266 C-1 3 -1 3 0 0 Z " fill="#DFC980" transform="translate(59,55)"/>
<path d="M0 0 C5.97878825 -0.28815332 9.20976985 2.22932341 13.49697876 6.06193829 C19.96689498 12.81508552 19.60501403 20.58700812 19.54980469 29.49385071 C19.49336192 31.77329015 19.4350491 34.05268396 19.375 36.33203125 C19.35833835 38.69704619 19.3470338 41.06210434 19.34082031 43.4271698 C19.31495924 48.36483644 19.24744087 53.29940918 19.14550781 58.23608398 C19.01513684 64.55550584 18.95421231 70.87301818 18.91995239 77.19362354 C18.88518751 83.24001845 18.8202874 89.28595881 18.75 95.33203125 C18.73829773 96.47999491 18.72659546 97.62795856 18.71453857 98.810709 C18.6749851 102.06549624 18.61453929 105.31917611 18.546875 108.57348633 C18.53723724 109.52999588 18.52759949 110.48650543 18.51766968 111.47200012 C18.37469064 117.0423376 17.6815112 121.08021817 15 126 C12.40625 128.21484375 12.40625 128.21484375 9.5 129.9375 C8.5409375 130.52402344 7.581875 131.11054688 6.59375 131.71484375 C4 133 4 133 1 133 C-0.27857964 130.44284071 -0.1229924 128.65005057 -0.12025452 125.78622437 C-0.12162918 124.68122086 -0.12300385 123.57621735 -0.12442017 122.43772888 C-0.12082489 121.21997269 -0.11722961 120.00221649 -0.11352539 118.74755859 C-0.11367142 117.4695488 -0.11381744 116.191539 -0.1139679 114.87480164 C-0.11425549 111.36468746 -0.10836491 107.85460727 -0.10139394 104.34450102 C-0.09515406 100.67828766 -0.0945561 97.01207357 -0.09336853 93.34585571 C-0.09025709 86.40084359 -0.08204621 79.45584717 -0.07201904 72.51084197 C-0.06085211 64.60526498 -0.05534599 56.69968725 -0.05032361 48.79410434 C-0.03986345 32.5293937 -0.02226762 16.26469885 0 0 Z " fill="#DECA80" transform="translate(88,83)"/>
<path d="M0 0 C5.93929328 0.37120583 10.42486651 2.0979896 15 6 C17.11573942 9.33688916 17.25288682 12.03423838 17.25878906 15.94262695 C17.26509338 17.14099686 17.27139771 18.33936676 17.27789307 19.5740509 C17.2738446 20.86574692 17.26979614 22.15744293 17.265625 23.48828125 C17.26697335 24.83343069 17.26891531 26.17857964 17.27142334 27.52372742 C17.27436962 30.34228152 17.27009503 33.16070872 17.26074219 35.97924805 C17.24938076 39.5769662 17.25588902 43.17438483 17.26788712 46.77209187 C17.27514734 49.55092078 17.27279821 52.32967985 17.26763153 55.10851097 C17.26566294 57.07537914 17.27169937 59.0422501 17.27789307 61.0091095 C17.19837292 76.2441413 17.19837292 76.2441413 11.5 82.4375 C10.8915625 83.11683594 10.283125 83.79617187 9.65625 84.49609375 C8 86 8 86 6 86 C6 86.66 6 87.32 6 88 C3.03 88.495 3.03 88.495 0 89 C-1.57699214 85.84601572 -1.1383291 82.4644999 -1.12939453 79.00195312 C-1.13114685 78.17582016 -1.13289917 77.34968719 -1.13470459 76.4985199 C-1.1391168 73.75940875 -1.13618732 71.02036184 -1.1328125 68.28125 C-1.13348572 66.38317858 -1.1344559 64.48510725 -1.13571167 62.58703613 C-1.13718779 58.60570455 -1.13503683 54.62439538 -1.13037109 50.64306641 C-1.12467386 45.5315294 -1.12795332 40.4200449 -1.13394356 35.30850983 C-1.13755148 31.38811851 -1.13640951 27.46773971 -1.13381577 23.54734802 C-1.13314714 21.6622263 -1.13397269 19.77710345 -1.13629532 17.89198303 C-1.13882561 15.26064022 -1.13497589 12.62938327 -1.12939453 9.99804688 C-1.13141876 9.21356674 -1.13344299 8.42908661 -1.13552856 7.62083435 C-1.11426418 2.22852836 -1.11426418 2.22852836 0 0 Z " fill="#CBB895" transform="translate(119,105)"/>
<path d="M0 0 C4.19378482 1.10439577 8.19189311 2.53207194 12.2421875 4.07421875 C13.07500244 4.38665527 13.90781738 4.6990918 14.76586914 5.02099609 C16.47607535 5.66303526 18.18546991 6.30724059 19.89404297 6.95361328 C22.17480806 7.81413492 24.45922192 8.66367926 26.74609375 9.5078125 C32.5625203 11.66252485 38.32069454 13.86359708 44.0234375 16.3046875 C50.377017 18.96814465 56.84753046 21.05590042 63.4296875 23.07421875 C65.63025806 23.7508273 67.82954657 24.43162387 70.02734375 25.1171875 C71.46025757 25.55647583 71.46025757 25.55647583 72.92211914 26.00463867 C75.3671875 26.88671875 75.3671875 26.88671875 78.3671875 28.88671875 C78.0371875 30.20671875 77.7071875 31.52671875 77.3671875 32.88671875 C75.0571875 32.88671875 72.7471875 32.88671875 70.3671875 32.88671875 C71.3571875 32.55671875 72.3471875 32.22671875 73.3671875 31.88671875 C73.3671875 30.56671875 73.3671875 29.24671875 73.3671875 27.88671875 C72.5628125 27.90734375 71.7584375 27.92796875 70.9296875 27.94921875 C68.3671875 27.88671875 68.3671875 27.88671875 67.3671875 26.88671875 C65.03900786 26.51911144 62.705349 26.18430294 60.3671875 25.88671875 C60.3671875 25.22671875 60.3671875 24.56671875 60.3671875 23.88671875 C59.38878906 23.81324219 59.38878906 23.81324219 58.390625 23.73828125 C53.43438897 23.31429646 49.03699299 22.73006302 44.3671875 20.88671875 C44.3671875 20.22671875 44.3671875 19.56671875 44.3671875 18.88671875 C40.7371875 19.21671875 37.1071875 19.54671875 33.3671875 19.88671875 C33.3671875 18.89671875 33.3671875 17.90671875 33.3671875 16.88671875 C32.3771875 16.88671875 31.3871875 16.88671875 30.3671875 16.88671875 C30.3671875 16.22671875 30.3671875 15.56671875 30.3671875 14.88671875 C29.57054687 14.76554687 28.77390625 14.644375 27.953125 14.51953125 C21.24453474 13.45856199 15.23266329 12.40373535 9.1796875 9.19921875 C6.38032151 7.50026039 6.38032151 7.50026039 3.3671875 8.88671875 C3.15515299 14.7176677 3.39771336 20.33085651 5.3671875 25.88671875 C6.0271875 26.21671875 6.6871875 26.54671875 7.3671875 26.88671875 C8.64254982 32.33599411 8.64254982 32.33599411 7.3671875 34.88671875 C8.0271875 34.88671875 8.6871875 34.88671875 9.3671875 34.88671875 C9.3053125 35.81484375 9.2434375 36.74296875 9.1796875 37.69921875 C9.16638055 41.02595642 9.83685391 43.77322114 10.8046875 46.94921875 C13.00475443 54.43152183 13.3671875 62.11654629 13.3671875 69.88671875 C14.0271875 70.21671875 14.6871875 70.54671875 15.3671875 70.88671875 C16.4921875 72.94921875 16.4921875 72.94921875 17.3671875 74.88671875 C17.4909375 73.60796875 17.6146875 72.32921875 17.7421875 71.01171875 C18.1171875 67.13671875 18.1171875 67.13671875 20.3671875 64.88671875 C20.3671875 63.56671875 20.3671875 62.24671875 20.3671875 60.88671875 C21.3671875 58.63671875 21.3671875 58.63671875 22.3671875 56.88671875 C23.6871875 56.88671875 25.0071875 56.88671875 26.3671875 56.88671875 C26.3671875 56.22671875 26.3671875 55.56671875 26.3671875 54.88671875 C30.00141959 52.56081021 33.13807081 52.72406042 37.3671875 52.88671875 C37.8621875 54.86671875 37.8621875 54.86671875 38.3671875 56.88671875 C39.0271875 56.88671875 39.6871875 56.88671875 40.3671875 56.88671875 C40.3671875 57.54671875 40.3671875 58.20671875 40.3671875 58.88671875 C41.0271875 58.88671875 41.6871875 58.88671875 42.3671875 58.88671875 C44.13181433 61.9748157 44.3671875 63.11984011 44.3671875 66.88671875 C44.9859375 66.96921875 45.6046875 67.05171875 46.2421875 67.13671875 C48.3671875 67.88671875 48.3671875 67.88671875 49.4921875 69.51171875 C50.62674682 72.5912369 51.48041261 75.7275832 52.3671875 78.88671875 C52.7384375 79.73234375 53.1096875 80.57796875 53.4921875 81.44921875 C54.54040133 84.36924299 54.51039648 86.80772576 54.3671875 89.88671875 C55.0271875 89.88671875 55.6871875 89.88671875 56.3671875 89.88671875 C58.39277631 93.23611756 58.58457737 95.75634426 58.4921875 99.63671875 C58.47414063 100.6215625 58.45609375 101.60640625 58.4375 102.62109375 C58.41429687 103.36875 58.39109375 104.11640625 58.3671875 104.88671875 C56.99375776 102.26935928 55.93919122 99.73757739 55.07421875 96.9140625 C53.1204752 90.92544043 50.59340135 85.20894744 48.0546875 79.44921875 C47.59384766 78.38123047 47.13300781 77.31324219 46.65820312 76.21289062 C43.6860302 69.44592668 40.33937978 63.1200185 36.3671875 56.88671875 C31.58210029 57.90186815 30.05116994 60.15390969 27.171875 64.015625 C23.4905635 69.87225693 21.05834399 76.37922299 18.63476562 82.83886719 C17.96058374 84.55584208 17.17051198 86.22623877 16.3671875 87.88671875 C14.8821875 88.38171875 14.8821875 88.38171875 13.3671875 88.88671875 C12.07879013 83.33089789 10.94294156 77.75659073 9.88671875 72.15234375 C6.65216937 55.0307925 3.15782908 38.04701764 -1.0546875 21.13671875 C-1.31056641 20.10289063 -1.56644531 19.0690625 -1.83007812 18.00390625 C-2.3889897 15.83353428 -2.98430377 13.67234812 -3.60742188 11.51953125 C-3.90970703 10.44445312 -4.21199219 9.369375 -4.5234375 8.26171875 C-4.80735352 7.30007812 -5.09126953 6.3384375 -5.38378906 5.34765625 C-5.6328125 2.88671875 -5.6328125 2.88671875 -4.36669922 1.04370117 C-2.6328125 -0.11328125 -2.6328125 -0.11328125 0 0 Z " fill="#F0ECCF" transform="translate(111.6328125,13.11328125)"/>
<path d="M0 0 C1.65 0 3.3 0 5 0 C4.67 72.27 4.34 144.54 4 219 C2.68 219.33 1.36 219.66 0 220 C0 147.4 0 74.8 0 0 Z " fill="#BA9D5F" transform="translate(30,25)"/>
<path d="M0 0 C0.66 0 1.32 0 2 0 C2 0.99 2 1.98 2 3 C2.66 3 3.32 3 4 3 C4 70.32 4 137.64 4 207 C2.68 207.33 1.36 207.66 0 208 C0 139.36 0 70.72 0 0 Z " fill="#E9D68E" transform="translate(36,34)"/>
<path d="M0 0 C0.66 0 1.32 0 2 0 C2 0.66 2 1.32 2 2 C2.66 2 3.32 2 4 2 C4 67.34 4 132.68 4 200 C3.34 200 2.68 200 2 200 C1.505 200.99 1.505 200.99 1 202 C-0.75336305 200.24663695 -0.12245719 197.94615396 -0.12908131 195.61012262 C-0.12471205 194.44137097 -0.12471205 194.44137097 -0.12025452 193.24900818 C-0.12110894 192.42735973 -0.12196337 191.60571128 -0.12284368 190.75916439 C-0.124501 187.9845222 -0.11897302 185.20993943 -0.11352539 182.43530273 C-0.11324355 180.45488486 -0.1134012 178.47446688 -0.1139679 176.49404907 C-0.11425598 171.09964316 -0.10835748 165.70525926 -0.10139394 160.31085849 C-0.09516222 154.68006421 -0.09455675 149.04926948 -0.09336853 143.41847229 C-0.09025467 132.74766975 -0.08204056 122.0768774 -0.07201904 111.40607935 C-0.06085958 99.26118582 -0.05534788 87.1162918 -0.05032361 74.97139442 C-0.03985799 49.98092395 -0.0222575 24.99046255 0 0 Z " fill="#BCA666" transform="translate(41,39)"/>
<path d="M0 0 C1.32 0 2.64 0 4 0 C4 56.1 4 112.2 4 170 C3.01 170.33 2.02 170.66 1 171 C0 170 0 170 -0.12304783 167.22199917 C-0.12212604 165.9692825 -0.12120424 164.71656584 -0.12025452 163.42588806 C-0.12110894 162.73082974 -0.12196337 162.03577141 -0.12284368 161.31965071 C-0.12450049 158.97341014 -0.11897387 156.62723992 -0.11352539 154.28100586 C-0.11324354 152.60600282 -0.11340122 150.93099967 -0.1139679 149.2559967 C-0.11425594 144.69420721 -0.10835814 140.13244377 -0.10139394 135.57066035 C-0.09516151 130.80871 -0.09455669 126.0467591 -0.09336853 121.2848053 C-0.09025489 112.26084434 -0.08204106 103.23689544 -0.07201904 94.2129398 C-0.06085893 83.94225513 -0.05534771 73.67156991 -0.05032361 63.40088069 C-0.03985847 42.26724706 -0.02225839 21.13362429 0 0 Z " fill="#BAA366" transform="translate(61,61)"/>
<path d="M0 0 C0.04676324 13.84742642 0.08187697 27.69484056 0.10362434 41.54232979 C0.11406192 47.97225813 0.12822081 54.40213343 0.15087891 60.83203125 C0.17260797 67.03711341 0.18456882 73.24214454 0.18975449 79.44726181 C0.19345011 81.81473468 0.20066667 84.18220476 0.21146011 86.54965591 C0.22597566 89.86535938 0.22797789 93.18085191 0.22705078 96.49658203 C0.23424133 97.4755394 0.24143188 98.45449677 0.24884033 99.46311951 C0.23395207 104.38320016 -0.05895139 108.38560052 -2 113 C-3.32 113 -4.64 113 -6 113 C-6 75.71 -6 38.42 -6 0 C-2 -1 -2 -1 0 0 Z " fill="#CBB58D" transform="translate(106,95)"/>
<path d="M0 0 C0.99 0.33 1.98 0.66 3 1 C4.125 6.75 4.125 6.75 3 9 C3.66 9 4.32 9 5 9 C4.938125 9.928125 4.87625 10.85625 4.8125 11.8125 C4.79919305 15.13923767 5.46966641 17.88650239 6.4375 21.0625 C8.63756693 28.54480308 9 36.22982754 9 44 C9.66 44.33 10.32 44.66 11 45 C12.125 47.0625 12.125 47.0625 13 49 C13.12375 47.72125 13.2475 46.4425 13.375 45.125 C13.75 41.25 13.75 41.25 16 39 C16 37.68 16 36.36 16 35 C17 32.75 17 32.75 18 31 C19.32 31 20.64 31 22 31 C22 30.34 22 29.68 22 29 C25.63423209 26.67409146 28.77088331 26.83734167 33 27 C33.495 28.98 33.495 28.98 34 31 C34.66 31 35.32 31 36 31 C36 31.66 36 32.32 36 33 C36.66 33 37.32 33 38 33 C39.76462683 36.08809695 40 37.23312136 40 41 C40.61875 41.0825 41.2375 41.165 41.875 41.25 C44 42 44 42 45.125 43.625 C46.25955932 46.70451815 47.11322511 49.84086445 48 53 C48.37125 53.845625 48.7425 54.69125 49.125 55.5625 C50.17321383 58.48252424 50.14320898 60.92100701 50 64 C50.66 64 51.32 64 52 64 C54.02558881 67.34939881 54.21738987 69.86962551 54.125 73.75 C54.10695312 74.73484375 54.08890625 75.7196875 54.0703125 76.734375 C54.04710937 77.48203125 54.02390625 78.2296875 54 79 C52.62657026 76.38264053 51.57200372 73.85085864 50.70703125 71.02734375 C48.7532877 65.03872168 46.22621385 59.32222869 43.6875 53.5625 C42.99624023 51.96051758 42.99624023 51.96051758 42.29101562 50.32617188 C39.3188427 43.55920793 35.97219228 37.23329975 32 31 C27.21491279 32.0151494 25.68398244 34.26719094 22.8046875 38.12890625 C19.123376 43.98553818 16.69115649 50.49250424 14.26757812 56.95214844 C13.59339624 58.66912333 12.80332448 60.33952002 12 62 C10.515 62.495 10.515 62.495 9 63 C8.68680856 61.60432165 8.37448212 60.20844918 8.0625 58.8125 C7.88847656 58.03519531 7.71445313 57.25789063 7.53515625 56.45703125 C7.35855469 55.64621094 7.18195313 54.83539063 7 54 C6.8040625 53.2575 6.608125 52.515 6.40625 51.75 C5.83003436 47.84946335 6.15162121 44.10765401 6.4375 40.1875 C6.48970703 39.39923828 6.54191406 38.61097656 6.59570312 37.79882812 C6.72459269 35.86548471 6.86149494 33.93267836 7 32 C6.34 32 5.68 32 5 32 C4.97421875 31.45214844 4.9484375 30.90429688 4.921875 30.33984375 C4.43116371 23.48103817 2.78726 17.17628193 0.83984375 10.61328125 C-0.01253402 6.94607455 -0.14924031 3.75026463 0 0 Z " fill="#D9D2B1" transform="translate(116,39)"/>
<path d="M0 0 C0.66 0 1.32 0 2 0 C2 0.66 2 1.32 2 2 C2.66 2 3.32 2 4 2 C4 42.26 4 82.52 4 124 C3.01 124 2.02 124 1 124 C-0.23771218 121.52457564 -0.12309772 119.89717764 -0.12025452 117.12789917 C-0.12162918 116.09862305 -0.12300385 115.06934692 -0.12442017 114.00888062 C-0.12082489 112.87528107 -0.11722961 111.74168152 -0.11352539 110.57373047 C-0.11367142 109.38350281 -0.11381744 108.19327515 -0.1139679 106.96697998 C-0.11338958 103.6985906 -0.10836573 100.43024373 -0.10139394 97.16186285 C-0.09515317 93.74789457 -0.09455603 90.3339255 -0.09336853 86.91995239 C-0.09025735 80.45305527 -0.08204683 73.98617501 -0.07201904 67.51928532 C-0.06085129 60.15783358 -0.05534578 52.79638104 -0.05032361 45.43492293 C-0.03986405 30.28993922 -0.02226873 15.14497129 0 0 Z " fill="#C3A768" transform="translate(90,88)"/>
<path d="M0 0 C0.33 0.66 0.66 1.32 1 2 C1.66 2 2.32 2 3 2 C3 52.82 3 103.64 3 156 C2.01 156 1.02 156 0 156 C0 104.52 0 53.04 0 0 Z " fill="#C2A767" transform="translate(71,69)"/>
<path d="M0 0 C1.67542976 0.28604898 3.34385343 0.61781233 5 1 C5 1.66 5 2.32 5 3 C3.68 3 2.36 3 1 3 C1 75.93 1 148.86 1 224 C1.99 224 2.98 224 4 224 C4 224.66 4 225.32 4 226 C2.0625 225.625 2.0625 225.625 0 225 C-1.65723457 221.68553085 -1.13646454 217.98182086 -1.12698364 214.33824158 C-1.12854363 213.43068967 -1.13010362 212.52313776 -1.13171089 211.58808428 C-1.13571875 208.52867733 -1.13253206 205.46931948 -1.12939453 202.40991211 C-1.13074866 200.22407502 -1.13252865 198.03823816 -1.13470459 195.85240173 C-1.13927731 189.9022239 -1.13749009 183.95206333 -1.1343255 178.00188518 C-1.1318014 171.78833007 -1.13413955 165.57477648 -1.13571167 159.36122131 C-1.13764989 148.25673614 -1.13453409 137.15225779 -1.12945233 126.04777396 C-1.12498328 115.96991506 -1.12576126 105.89206768 -1.13037109 95.81420898 C-1.13571675 84.12215873 -1.13771783 72.4301152 -1.13475883 60.73806387 C-1.13319575 54.5447379 -1.13300317 48.35141987 -1.13629532 42.15809441 C-1.13917279 36.33793532 -1.13720064 30.51779809 -1.13140106 24.69764137 C-1.13007286 22.55497143 -1.13046859 20.41229966 -1.13266373 18.26963043 C-1.13537283 15.35798659 -1.13199708 12.44641401 -1.12698364 9.53477478 C-1.12921436 8.67526134 -1.13144509 7.8157479 -1.13374341 6.9301886 C-1.11414992 1.11414992 -1.11414992 1.11414992 0 0 Z " fill="#CBBBA6" transform="translate(29,22)"/>
<path d="M0 0 C0.99 0 1.98 0 3 0 C3.04671424 19.21043901 3.08198603 38.42086649 3.10362434 57.63135052 C3.11393829 66.55104661 3.1280009 75.47070741 3.15087891 84.39038086 C3.17080914 92.16448087 3.18371558 99.93855532 3.18817699 107.71268016 C3.19078499 111.82927 3.19691741 115.94578672 3.21146011 120.06235313 C3.22503822 123.93727864 3.22922218 127.81210093 3.22621536 131.68704796 C3.22676542 133.10884156 3.23074155 134.53063863 3.23841095 135.95241165 C3.24837516 137.8949407 3.2447742 139.83752516 3.24050903 141.78007507 C3.24235262 142.866869 3.24419621 143.95366293 3.24609566 145.07339001 C2.98904076 148.13032904 2.43822145 150.29381773 1 153 C-1.625 153.8125 -1.625 153.8125 -4 154 C-3.505 153.01 -3.505 153.01 -3 152 C-2.01 152 -1.02 152 0 152 C0 101.84 0 51.68 0 0 Z " fill="#CBBA94" transform="translate(74,73)"/>
<path d="M0 0 C0.99 0.66 1.98 1.32 3 2 C2.37351562 2.24363281 1.74703125 2.48726562 1.1015625 2.73828125 C-1.51681999 4.31028412 -1.79870887 5.29548106 -2.625 8.1875 C-2.86089844 8.98414063 -3.09679687 9.78078125 -3.33984375 10.6015625 C-3.66662109 11.78878906 -3.66662109 11.78878906 -4 13 C-4.20753906 13.70898438 -4.41507812 14.41796875 -4.62890625 15.1484375 C-5.09970682 16.76167022 -5.55199478 18.38028882 -6 20 C-6.33 20 -6.66 20 -7 20 C-7.33 18.35 -7.66 16.7 -8 15 C-8.556875 15.61875 -9.11375 16.2375 -9.6875 16.875 C-12 19 -12 19 -14.625 20 C-17.57035924 21.24015126 -17.65026571 22.21617302 -19 25 C-21.3125 26.5625 -21.3125 26.5625 -24 28 C-26.66370324 29.54866467 -28.81884536 30.81884536 -31 33 C-31.70125 33.2475 -32.4025 33.495 -33.125 33.75 C-35.7708857 34.90038509 -37.44950869 36.04471293 -39.6875 37.8125 C-43.48249196 40.76655624 -47.42480431 42.78919293 -51.7578125 44.84375 C-54.16946957 45.98589817 -54.16946957 45.98589817 -56.5625 48.125 C-59.57267625 50.44052019 -62.47045201 51.22142843 -66.109375 52.19140625 C-66.73328125 52.45824219 -67.3571875 52.72507813 -68 53 C-68.33 53.99 -68.66 54.98 -69 56 C-70.485 56.495 -70.485 56.495 -72 57 C-72.33 57.66 -72.66 58.32 -73 59 C-76.3 58.67 -79.6 58.34 -83 58 C-78.37608422 54.0255106 -73.44197759 51.66422969 -67.9609375 49.07421875 C-62.72886709 46.45886855 -57.90520356 43.1720759 -53 40 C-51.1449893 38.83053673 -49.28823182 37.66383936 -47.4296875 36.5 C-46.51316406 35.9225 -45.59664062 35.345 -44.65234375 34.75 C-42.79518566 33.57980756 -40.9357907 32.41315793 -39.07421875 31.25 C-31.37551148 26.38537256 -24.14117337 21.11642398 -17.4375 14.9375 C-14.02981501 11.85690519 -10.5043098 9.09314615 -6.796875 6.38671875 C-4.29199841 4.45360747 -2.16648024 2.30188525 0 0 Z " fill="#EAE3A3" transform="translate(148,183)"/>
<path d="M0 0 C5.01441603 0.151952 7.33354746 2.92701329 10.64453125 6.30859375 C12 8 12 8 12 10 C12.61875 10.20625 13.2375 10.4125 13.875 10.625 C16.84653645 12.54775888 17.13024659 14.66594527 18 18 C17.01 18 16.02 18 15 18 C15 17.34 15 16.68 15 16 C14.34 16 13.68 16 13 16 C13 15.01 13 14.02 13 13 C12.34 13 11.68 13 11 13 C10.67 65.8 10.34 118.6 10 173 C9.34 173 8.68 173 8 173 C7.99761165 172.15147776 7.99522329 171.30295551 7.99276257 170.42872047 C7.93369317 149.80694463 7.85819516 129.18528644 7.76428509 108.56363869 C7.71926985 98.59126464 7.67986853 88.61892677 7.65356445 78.64648438 C7.63063062 69.95712638 7.59728468 61.26788231 7.55129844 52.57861459 C7.52730368 47.97532149 7.50861602 43.37214166 7.50238609 38.76878738 C7.49636335 34.43987706 7.47646637 30.11125676 7.44572449 25.78245354 C7.4368989 24.19010744 7.43323096 22.59772351 7.43499184 21.00535393 C7.43663239 18.83807843 7.42005206 16.67170007 7.39872742 14.50454712 C7.39411845 13.28962397 7.38950949 12.07470081 7.38476086 10.82296181 C7.25778977 9.89138441 7.13081869 8.95980701 7 8 C6.01 7.34 5.02 6.68 4 6 C4 5.34 4 4.68 4 4 C3.01 4.33 2.02 4.66 1 5 C0.34 4.34 -0.32 3.68 -1 3 C-0.67 2.01 -0.34 1.02 0 0 Z " fill="#F0DD93" transform="translate(59,55)"/>
<path d="M0 0 C0.33 0.66 0.66 1.32 1 2 C1.66 2 2.32 2 3 2 C3 46.55 3 91.1 3 137 C1.08986259 133.17972517 0.78071118 132.16993609 0.9375 128.1875 C1.04127921 125.34936421 0.9756203 122.85432425 0.50538635 120.04454041 C-0.25062911 114.89892322 -0.1311369 109.74695198 -0.11352539 104.55688477 C-0.11374443 102.85823021 -0.11374443 102.85823021 -0.1139679 101.1252594 C-0.11327349 97.39728859 -0.10550316 93.66936829 -0.09765625 89.94140625 C-0.0957904 87.35066251 -0.09436728 84.75991841 -0.09336853 82.16917419 C-0.08994577 76.05660186 -0.08207125 69.94405024 -0.07201904 63.83148569 C-0.06081901 56.86894322 -0.05533767 49.90639987 -0.05032361 42.94385064 C-0.03988752 28.62922411 -0.02231239 14.3146127 0 0 Z " fill="#B39B63" transform="translate(42,39)"/>
<path d="M0 0 C-16.61904681 17.80358559 -48.75336222 25.15379301 -71.09170532 32.20904541 C-72.94549303 32.79526342 -74.79736415 33.38753147 -76.64916992 33.97998047 C-84.04855702 36.28459879 -91.31938616 37.95464173 -99 39 C-99 38.01 -99 37.02 -99 36 C-98.22914062 35.95101562 -97.45828125 35.90203125 -96.6640625 35.8515625 C-95.66117188 35.77679688 -94.65828125 35.70203125 -93.625 35.625 C-92.62726563 35.55539062 -91.62953125 35.48578125 -90.6015625 35.4140625 C-87.84491121 35.23636036 -87.84491121 35.23636036 -86 33 C-83.375 32.875 -83.375 32.875 -81 33 C-81 32.34 -81 31.68 -81 31 C-77.86501708 29.14223235 -75.62528568 28.79859524 -72 29 C-72 28.34 -72 27.68 -72 27 C-68.33280081 24.02040066 -65.67323136 23.88962463 -61.05078125 24.08984375 C-57.70261762 23.9431623 -54.99376814 22.41215478 -52 21 C-50.33805547 20.64386903 -48.671549 20.30791692 -47 20 C-45.31422289 19.38325228 -43.64551962 18.71727778 -42 18 C-41.29875 17.71125 -40.5975 17.4225 -39.875 17.125 C-37.82988079 16.10939183 -37.82988079 16.10939183 -36.8125 13.875 C-35 12 -35 12 -32.953125 11.8125 C-31.38517558 11.85349214 -29.81766184 11.93297387 -28.25390625 12.0546875 C-25.58187633 11.98985489 -24.18103934 11.54350476 -22 10 C-21.67 8.68 -21.34 7.36 -21 6 C-15.555 5.01 -15.555 5.01 -10 4 C-10 3.34 -10 2.68 -10 2 C-6.5980513 -0.09350689 -3.94727588 -0.17942163 0 0 Z " fill="#E4DDA6" transform="translate(144,223)"/>
<path d="M0 0 C1.65 0 3.3 0 5 0 C5 0.66 5 1.32 5 2 C4.34 2 3.68 2 3 2 C3.10712218 24.13073886 3.21986233 46.2614427 3.33933926 68.39211845 C3.39467935 78.66716232 3.44816263 88.94220967 3.49731445 99.21728516 C3.54014667 108.1702854 3.58642221 117.12325999 3.63687855 126.07622063 C3.66348725 130.81921658 3.68834051 135.56220742 3.70907402 140.305233 C3.72862521 144.76536589 3.7527644 149.22544992 3.78049088 153.68553925 C3.78986937 155.3262735 3.79754177 156.96701848 3.80341911 158.60776901 C3.81166677 160.8404445 3.82593956 163.07300097 3.84178162 165.30563354 C3.84823417 166.55742842 3.85468672 167.80922329 3.8613348 169.09895134 C3.80131479 171.93929646 3.80131479 171.93929646 5 174 C3.68 173.67 2.36 173.34 1 173 C0.67 115.91 0.34 58.82 0 0 Z " fill="#BDAF92" transform="translate(58,59)"/>
<path d="M0 0 C0.99 0 1.98 0 3 0 C3 36.63 3 73.26 3 111 C2.34 111 1.68 111 1 111 C0.505 111.99 0.505 111.99 0 113 C0 75.71 0 38.42 0 0 Z " fill="#BBA160" transform="translate(100,95)"/>
<path d="M0 0 C1.65 0 3.3 0 5 0 C4.67 24.75 4.34 49.5 4 75 C5.485 74.505 5.485 74.505 7 74 C5.71480435 76.86697492 4.42870746 78.97607712 2 81 C1.34 81 0.68 81 0 81 C0 54.27 0 27.54 0 0 Z " fill="#EDD992" transform="translate(125,110)"/>
<path d="M0 0 C1.32 0 2.64 0 4 0 C3.83761904 0.71905455 3.67523808 1.43810909 3.50793648 2.17895317 C3.01688023 4.90624827 2.87420663 7.36990085 2.87301636 10.13674927 C2.87019653 11.1489856 2.86737671 12.16122192 2.86447144 13.20413208 C2.86649567 14.30353119 2.8685199 15.4029303 2.87060547 16.53564453 C2.86885315 17.70198425 2.86710083 18.86832397 2.86529541 20.07000732 C2.86089493 23.92429086 2.8638082 27.7785285 2.8671875 31.6328125 C2.86651403 34.30890968 2.86554523 36.98500546 2.86428833 39.66110229 C2.8624707 45.26805112 2.86486283 50.87498677 2.86962891 56.48193359 C2.87507606 62.96499789 2.87330396 69.44803075 2.8678025 75.93109429 C2.86326614 81.49977612 2.86262323 87.06844849 2.86524117 92.63713157 C2.86680037 95.96213565 2.86661483 99.28712171 2.86370468 102.6121254 C2.86117416 106.31582029 2.86502424 110.0194542 2.87060547 113.72314453 C2.86858124 114.8265921 2.86655701 115.93003967 2.86447144 117.06692505 C2.86870117 118.57682007 2.86870117 118.57682007 2.87301636 120.11721802 C2.87339338 120.99287981 2.87377041 121.8685416 2.87415886 122.7707386 C2.91202487 125.17317022 2.91202487 125.17317022 4 128 C3.34 128 2.68 128 2 128 C-0.20204976 124.69692536 -0.2482028 123.72909545 -0.24050903 119.89375305 C-0.24325836 118.8378598 -0.24600769 117.78196655 -0.24884033 116.69407654 C-0.24164978 115.53602005 -0.23445923 114.37796356 -0.22705078 113.18481445 C-0.22734283 111.96518005 -0.22763489 110.74554565 -0.22793579 109.48895264 C-0.22678032 106.14409904 -0.21674268 102.79949164 -0.20278788 99.45468163 C-0.19029424 95.95931233 -0.1891111 92.46393982 -0.18673706 88.96855164 C-0.18051826 82.34937557 -0.16410206 75.73026549 -0.14403808 69.1111185 C-0.12169149 61.57553049 -0.11068878 54.03993935 -0.10064721 46.50432646 C-0.07973617 31.00284608 -0.04455245 15.50143155 0 0 Z " fill="#C8B695" transform="translate(88,85)"/>
<path d="M0 0 C0.33 1.32 0.66 2.64 1 4 C1.66 4 2.32 4 3 4 C3 4.66 3 5.32 3 6 C3.66 6 4.32 6 5 6 C6.76462683 9.08809695 7 10.23312136 7 14 C7.61875 14.0825 8.2375 14.165 8.875 14.25 C11 15 11 15 12.125 16.625 C13.25955932 19.70451815 14.11322511 22.84086445 15 26 C15.37125 26.845625 15.7425 27.69125 16.125 28.5625 C17.17321383 31.48252424 17.14320898 33.92100701 17 37 C17.66 37 18.32 37 19 37 C21.02558881 40.34939881 21.21738987 42.86962551 21.125 46.75 C21.10695312 47.73484375 21.08890625 48.7196875 21.0703125 49.734375 C21.04710937 50.48203125 21.02390625 51.2296875 21 52 C19.62657026 49.38264053 18.57200372 46.85085864 17.70703125 44.02734375 C15.7532877 38.03872168 13.22621385 32.32222869 10.6875 26.5625 C10.22666016 25.49451172 9.76582031 24.42652344 9.29101562 23.32617188 C6.3188427 16.55920793 2.97219228 10.23329975 -1 4 C-5.14745357 3.82718943 -7.0522666 4.13904291 -10.17578125 6.9765625 C-14.82585734 12.46824285 -17.08051234 16.87397063 -18 24 C-19.32 24.33 -20.64 24.66 -22 25 C-21.566875 23.9790625 -21.566875 23.9790625 -21.125 22.9375 C-19.54551604 18.81329187 -18.30818331 14.6564853 -17.5 10.3125 C-16.98767191 7.9429826 -16.1730297 6.11145346 -15 4 C-13.68 4 -12.36 4 -11 4 C-11 3.34 -11 2.68 -11 2 C-7.36576791 -0.32590854 -4.22911669 -0.16265833 0 0 Z " fill="#D3C385" transform="translate(149,66)"/>
<path d="M0 0 C0.99 0 1.98 0 3 0 C3 26.73 3 53.46 3 81 C2.01 81 1.02 81 0 81 C0 54.27 0 27.54 0 0 Z " fill="#BCA166" transform="translate(120,109)"/>
<path d="M0 0 C0.66 0 1.32 0 2 0 C2 38.28 2 76.56 2 116 C2.66 116.33 3.32 116.66 4 117 C2.02 117.495 2.02 117.495 0 118 C0 79.06 0 40.12 0 0 Z " fill="#F4E295" transform="translate(96,92)"/>
<path d="M0 0 C10.69795195 -0.66584763 18.14770861 0.53171555 28 5 C36.21303659 8.60671812 44.48972849 11.55879003 53.0625 14.1875 C55.26307056 14.86410855 57.46235907 15.54490512 59.66015625 16.23046875 C61.09307007 16.66975708 61.09307007 16.66975708 62.55493164 17.11791992 C65 18 65 18 68 20 C67.67 21.32 67.34 22.64 67 24 C64.69 24 62.38 24 60 24 C60.99 23.67 61.98 23.34 63 23 C63 21.68 63 20.36 63 19 C62.195625 19.020625 61.39125 19.04125 60.5625 19.0625 C58 19 58 19 57 18 C54.67182036 17.63239269 52.3381615 17.29758419 50 17 C50 16.34 50 15.68 50 15 C49.02160156 14.92652344 49.02160156 14.92652344 48.0234375 14.8515625 C43.06720147 14.42757771 38.66980549 13.84334427 34 12 C34 11.34 34 10.68 34 10 C30.37 10.33 26.74 10.66 23 11 C23 10.01 23 9.02 23 8 C22.01 8 21.02 8 20 8 C20 7.34 20 6.68 20 6 C19.20335937 5.87882812 18.40671875 5.75765625 17.5859375 5.6328125 C3.38728324 3.38728324 3.38728324 3.38728324 0 0 Z " fill="#C9B990" transform="translate(122,22)"/>
<path d="M0 0 C0.33 0 0.66 0 1 0 C1.75381399 31.81656388 2.09524968 63.61300147 2.0625 95.4375 C2.06164398 96.27529747 2.06078796 97.11309494 2.05990601 97.97628021 C2.04855148 108.31754287 2.02852851 118.65876997 2 129 C0.68 129.33 -0.64 129.66 -2 130 C-1.93148331 128.71088715 -1.86296661 127.42177429 -1.79237366 126.09359741 C-1.0510577 111.4691392 -0.79184665 96.86780949 -0.68359375 82.2265625 C-0.6629546 79.83661599 -0.64195672 77.44667256 -0.62062073 75.05673218 C-0.56611699 68.84607476 -0.51639975 62.63538846 -0.46777344 56.42468262 C-0.41702573 50.05523185 -0.36162129 43.68582164 -0.30664062 37.31640625 C-0.19993974 24.87763903 -0.09830927 12.43883619 0 0 Z " fill="#B89C60" transform="translate(32,115)"/>
<path d="M0 0 C1.65 0 3.3 0 5 0 C4.51293569 0.41813314 4.02587139 0.83626628 3.52404755 1.26707011 C0.96516866 4.17666286 1.57963592 7.82812581 1.60127258 11.522995 C1.59462576 12.40352203 1.58797893 13.28404906 1.58113068 14.19125873 C1.56242027 17.15325678 1.56511137 20.11485374 1.56762695 23.0769043 C1.55861471 25.19555231 1.54828882 27.31419509 1.53674316 29.43283081 C1.50908399 35.19487973 1.49987655 40.95682996 1.49388909 46.71893668 C1.48452859 52.7368029 1.45832716 58.75459471 1.43388367 64.77241516 C1.39015089 76.17270043 1.36164558 87.57297132 1.33856028 98.97331506 C1.3115449 111.95020579 1.26763118 124.92702194 1.22227156 137.9038595 C1.12932821 164.6025326 1.05769189 191.3012291 1 218 C0.67 218 0.34 218 0 218 C0 146.06 0 74.12 0 0 Z " fill="#BEA77E" transform="translate(30,25)"/>
<path d="M0 0 C0.99 0.66 1.98 1.32 3 2 C2.37351563 2.24363281 1.74703125 2.48726562 1.1015625 2.73828125 C-1.51681999 4.31028412 -1.79870887 5.29548106 -2.625 8.1875 C-2.86089844 8.98414063 -3.09679687 9.78078125 -3.33984375 10.6015625 C-3.66662109 11.78878906 -3.66662109 11.78878906 -4 13 C-4.20753906 13.70898438 -4.41507813 14.41796875 -4.62890625 15.1484375 C-5.09970682 16.76167022 -5.55199478 18.38028882 -6 20 C-6.33 20 -6.66 20 -7 20 C-7.495 17.525 -7.495 17.525 -8 15 C-8.556875 15.61875 -9.11375 16.2375 -9.6875 16.875 C-12 19 -12 19 -14.625 20 C-17.57035924 21.24015126 -17.65026571 22.21617302 -19 25 C-21.3125 26.5625 -21.3125 26.5625 -24 28 C-26.66370324 29.54866467 -28.81884536 30.81884536 -31 33 C-32.98356483 33.71408334 -34.98315437 34.38617742 -37 35 C-37 34.34 -37 33.68 -37 33 C-36.195625 32.360625 -35.39125 31.72125 -34.5625 31.0625 C-31.76279268 29.18964068 -31.76279268 29.18964068 -31 26 C-29.25 24.45703125 -29.25 24.45703125 -27 22.8125 C-23.67302147 20.31331169 -20.51853359 17.73454267 -17.4375 14.9375 C-14.02981501 11.85690519 -10.5043098 9.09314615 -6.796875 6.38671875 C-4.29199841 4.45360747 -2.16648024 2.30188525 0 0 Z " fill="#E6DEAA" transform="translate(148,183)"/>
<path d="M0 0 C2.96130247 2.51366373 4.0829217 5.1709689 5.5 8.75 C6.83766987 12.0961832 8.17210473 15.41824623 9.6875 18.6875 C16.53704821 35.974455 15.13942142 57.71425212 8.01171875 74.60546875 C7.34759343 76.07324694 6.67713988 77.5381803 6 79 C5.6798291 79.72010254 5.3596582 80.44020508 5.02978516 81.18212891 C3.21713182 85.23421692 1.40279218 89.2590191 -1 93 C-2.485 93.495 -2.485 93.495 -4 94 C-4 93.34 -4 92.68 -4 92 C-3.34 92 -2.68 92 -2 92 C-2 90.68 -2 89.36 -2 88 C-1.34 88 -0.68 88 0 88 C0 86.68 0 85.36 0 84 C0.66 84 1.32 84 2 84 C1.95875 83.278125 1.9175 82.55625 1.875 81.8125 C2.00921305 78.79270631 2.75170619 76.73064271 4 74 C4.66 74 5.32 74 6 74 C6.103125 72.865625 6.20625 71.73125 6.3125 70.5625 C6.89741433 65.7984152 8.36903429 61.49401964 10 57 C10.93735485 54.18793545 11.12862569 52.45309907 11.1328125 49.54296875 C11.13410156 48.67736328 11.13539063 47.81175781 11.13671875 46.91992188 C11.13285156 46.01822266 11.12898437 45.11652344 11.125 44.1875 C11.12886719 43.29740234 11.13273438 42.40730469 11.13671875 41.49023438 C11.1298836 36.87992573 10.94450512 32.5351238 10 28 C9.34 28 8.68 28 8 28 C6.66416101 23.15758367 5.74671881 19.06562383 6 14 C5.34 14 4.68 14 4 14 C3.01 11.03 2.02 8.06 1 5 C0.67 5 0.34 5 0 5 C0 3.35 0 1.7 0 0 Z " fill="#B7A28A" transform="translate(187,91)"/>
<path d="M0 0 C0.99 0 1.98 0 3 0 C3 22.44 3 44.88 3 68 C2.34 68 1.68 68 1 68 C0.505 68.99 0.505 68.99 0 70 C0 46.9 0 23.8 0 0 Z " fill="#BCA16C" transform="translate(131,113)"/>
<path d="M0 0 C0.66 0 1.32 0 2 0 C2 0.99 2 1.98 2 3 C1.34 3 0.68 3 0 3 C0 66.69 0 130.38 0 196 C-0.33 196 -0.66 196 -1 196 C-1.02332591 170.5924302 -1.04097766 145.184862 -1.05181217 119.77728367 C-1.05697579 107.98099472 -1.06401972 96.18471242 -1.07543945 84.38842773 C-1.0853843 74.11079003 -1.09185295 63.83315713 -1.09408849 53.55551475 C-1.09539594 48.10998212 -1.09848393 42.66446325 -1.10573006 37.21893501 C-1.11248713 32.09974791 -1.1146176 26.9805803 -1.11310768 21.86138916 C-1.11338415 19.97672864 -1.11539112 18.0920675 -1.11920547 16.20741081 C-1.12413785 13.64598563 -1.12299999 11.08463532 -1.12025452 8.52320862 C-1.12316736 7.76738654 -1.1260802 7.01156447 -1.12908131 6.23283869 C-1.11412121 1.11412121 -1.11412121 1.11412121 0 0 Z " fill="#B99F6D" transform="translate(32,27)"/>
<path d="M0 0 C0.66 0 1.32 0 2 0 C2.33 22.44 2.66 44.88 3 68 C3.66 68 4.32 68 5 68 C5 59.42 5 50.84 5 42 C7.3755533 44.3755533 7.2557965 44.8771565 7.265625 48.10546875 C7.26820313 48.92466797 7.27078125 49.74386719 7.2734375 50.58789062 C7.26570312 51.44576172 7.25796875 52.30363281 7.25 53.1875 C7.25773438 54.02603516 7.26546875 54.86457031 7.2734375 55.72851562 C7.23585552 67.76414448 7.23585552 67.76414448 3 72 C2.01 72 1.02 72 0 72 C0 48.24 0 24.48 0 0 Z " fill="#CCB678" transform="translate(129,113)"/>
<path d="M0 0 C1.32 0 2.64 0 4 0 C4.66 3.3 5.32 6.6 6 10 C6.66 10 7.32 10 8 10 C10.29612756 19.41002278 10.29612756 19.41002278 10 24 C10.66 24 11.32 24 12 24 C14.2075729 29.35248827 14.30097696 34.12432113 14.25 39.8125 C14.25773438 40.66392578 14.26546875 41.51535156 14.2734375 42.39257812 C14.24628647 51.3049034 12.95324498 57.57013254 8 65 C6.92578125 59.23828125 6.92578125 59.23828125 7 57 C7.48082031 56.30261719 7.96164063 55.60523438 8.45703125 54.88671875 C10.78945049 50.52302807 10.44483372 46.37151841 10.375 41.5 C10.36774902 40.52200439 10.36049805 39.54400879 10.35302734 38.53637695 C10.2132408 31.18178151 9.71880292 23.92172302 7 17 C6.34 16.67 5.68 16.34 5 16 C4.67 15.01 4.34 14.02 4 13 C3.24783203 12.32517578 3.24783203 12.32517578 2.48046875 11.63671875 C0.46847718 9.41237978 0.50445301 7.76857637 0.3125 4.8125 C0.24675781 3.91144531 0.18101562 3.01039062 0.11328125 2.08203125 C0.07589844 1.39496094 0.03851563 0.70789063 0 0 Z " fill="#967448" transform="translate(185,95)"/>
<path d="M0 0 C0 1.65 0 3.3 0 5 C-0.66 5 -1.32 5 -2 5 C-2.2165625 6.0828125 -2.2165625 6.0828125 -2.4375 7.1875 C-2.95833333 9.79166667 -3.47916667 12.39583333 -4 15 C-4.66 15 -5.32 15 -6 15 C-6 16.32 -6 17.64 -6 19 C-6.66 19 -7.32 19 -8 19 C-8 20.32 -8 21.64 -8 23 C-8.66 23 -9.32 23 -10 23 C-10 23.66 -10 24.32 -10 25 C-9.34 25.33 -8.68 25.66 -8 26 C-8.639375 26.28875 -9.27875 26.5775 -9.9375 26.875 C-12.15206079 27.82823451 -12.15206079 27.82823451 -13 30 C-13.66 30 -14.32 30 -15 30 C-15 30.66 -15 31.32 -15 32 C-15.66 32 -16.32 32 -17 32 C-17 32.66 -17 33.32 -17 34 C-17.66 34 -18.32 34 -19 34 C-19 34.66 -19 35.32 -19 36 C-19.66 36 -20.32 36 -21 36 C-21 36.99 -21 37.98 -21 39 C-21.66 39 -22.32 39 -23 39 C-23 39.99 -23 40.98 -23 42 C-23.66 42 -24.32 42 -25 42 C-25.33 40.35 -25.66 38.7 -26 37 C-25.01 36.34 -24.02 35.68 -23 35 C-23 34.34 -23 33.68 -23 33 C-22.34 32.34 -21.68 31.68 -21 31 C-20.3574765 28.93125966 -20.3574765 28.93125966 -20 27 C-18.35 27 -16.7 27 -15 27 C-13.99983813 24.99967627 -13.50603992 23.16874252 -13 21 C-13.66 20.67 -14.32 20.34 -15 20 C-13.35 19.67 -11.7 19.34 -10 19 C-10 18.01 -10 17.02 -10 16 C-9.34 15.34 -8.68 14.68 -8 14 C-7.6709686 12.38577758 -7.40792545 10.7576017 -7.1875 9.125 C-6.50364305 5.30863704 -6.24084612 4.24672042 -3.4375 1.375 C-1 0 -1 0 0 0 Z " fill="#A48648" transform="translate(193,160)"/>
<path d="M0 0 C0.66 0 1.32 0 2 0 C2 27.72 2 55.44 2 84 C0.35 83.67 -1.3 83.34 -3 83 C-3 82.34 -3 81.68 -3 81 C-2.01 81 -1.02 81 0 81 C0 54.27 0 27.54 0 0 Z " fill="#D4BB75" transform="translate(123,109)"/>
<path d="M0 0 C5.94999886 2.42802644 10.32051246 8.35428315 12.9609375 14.0859375 C14.92328765 21.05370252 14.1653576 28.50261054 13.50805664 35.61230469 C13.00078072 41.56253568 12.78685257 47.48383822 12.68359375 53.453125 C12.66281265 54.47935974 12.64203156 55.50559448 12.62062073 56.56292725 C12.55603709 59.79189362 12.49667143 63.02093039 12.4375 66.25 C12.3942277 68.45964225 12.35061089 70.66927778 12.30664062 72.87890625 C12.20045152 78.25253309 12.09852847 83.62622753 12 89 C11.67 89 11.34 89 11 89 C11 64.58 11 40.16 11 15 C10.34 15 9.68 15 9 15 C9 13.68 9 12.36 9 11 C7.35 11 5.7 11 4 11 C4 10.01 4 9.02 4 8 C3.34 8 2.68 8 2 8 C2 6.68 2 5.36 2 4 C1.34 4 0.68 4 0 4 C0 2.68 0 1.36 0 0 Z " fill="#D9CAA7" transform="translate(34,26)"/>
<path d="M0 0 C0 0.66 0 1.32 0 2 C-0.66 2 -1.32 2 -2 2 C-2 2.66 -2 3.32 -2 4 C-4.43707838 4.9802271 -6.87463945 5.95922171 -9.3125 6.9375 C-10.34793945 7.35418945 -10.34793945 7.35418945 -11.40429688 7.77929688 C-14.25267773 8.92140128 -17.08790694 10.02930231 -20 11 C-20 11.66 -20 12.32 -20 13 C-23.63423209 15.32590854 -26.77088331 15.16265833 -31 15 C-31 15.99 -31 16.98 -31 18 C-32.32 18 -33.64 18 -35 18 C-35 18.66 -35 19.32 -35 20 C-30.38 20 -25.76 20 -21 20 C-23.75218858 22.75218858 -25.92155967 22.61615667 -29.75 23.125 C-30.96171875 23.29257812 -32.1734375 23.46015625 -33.421875 23.6328125 C-36.64941109 23.96402254 -39.75928599 24.06958588 -43 24 C-43.33 22.68 -43.66 21.36 -44 20 C-41.03 19.01 -38.06 18.02 -35 17 C-35 16.34 -35 15.68 -35 15 C-34.2265625 14.68546875 -33.453125 14.3709375 -32.65625 14.046875 C-27.41578276 11.89361371 -22.25412343 9.70217124 -17.21484375 7.11328125 C-14.21029223 5.60305694 -11.17103421 4.1745965 -8.125 2.75 C-7.01382813 2.22921875 -5.90265625 1.7084375 -4.7578125 1.171875 C-2 0 -2 0 0 0 Z " fill="#CCBE9B" transform="translate(65,241)"/>
<path d="M0 0 C0.33 0 0.66 0 1 0 C1.00634791 1.20320798 1.00634791 1.20320798 1.01282406 2.43072319 C1.11601549 21.92584877 1.22463582 41.42093712 1.33933926 60.91599846 C1.39467672 70.34356306 1.44815956 79.77113144 1.49731445 89.19873047 C1.54014989 97.41340466 1.58642625 105.62805093 1.63687855 113.842682 C1.66348465 118.19443774 1.68833785 122.54618792 1.70907402 126.89797592 C1.72862862 130.99040397 1.75276884 135.08277883 1.78049088 139.17515945 C1.78986756 140.68043809 1.79754061 142.18572841 1.80341911 143.69102478 C1.81166971 145.73974904 1.82653542 147.78844354 1.84178162 149.83712769 C1.84823417 150.98568174 1.85468672 152.1342358 1.8613348 153.31759453 C1.81903799 155.97177771 1.81903799 155.97177771 3 158 C1.68 157.67 0.36 157.34 -1 157 C-0.67 105.19 -0.34 53.38 0 0 Z " fill="#D0BE96" transform="translate(60,75)"/>
<path d="M0 0 C2.475 0.495 2.475 0.495 5 1 C5 1.66 5 2.32 5 3 C3.68 3 2.36 3 1 3 C1 51.18 1 99.36 1 149 C0.67 149 0.34 149 0 149 C0 99.83 0 50.66 0 0 Z " fill="#DDCCAF" transform="translate(29,22)"/>
<path d="M0 0 C0.33 0 0.66 0 1 0 C1.07425143 4.76884567 1.12864936 9.5373536 1.16479492 14.30664062 C1.17986565 15.92844506 1.20032593 17.55020884 1.22631836 19.171875 C1.26277829 21.50531046 1.27974314 23.83820631 1.29296875 26.171875 C1.30845261 26.89493835 1.32393646 27.61800171 1.33988953 28.36297607 C1.34130953 32.62689968 0.87199749 34.84786177 -2 38 C-3.01965427 40.32481174 -4.02059602 42.65794699 -5 45 C-5.66 45.99 -6.32 46.98 -7 48 C-7.66 48 -8.32 48 -9 48 C-9 49.32 -9 50.64 -9 52 C-9.66 52 -10.32 52 -11 52 C-11 53.98 -11 55.96 -11 58 C-11.66 58 -12.32 58 -13 58 C-13 58.66 -13 59.32 -13 60 C-13.66 60 -14.32 60 -15 60 C-15 60.66 -15 61.32 -15 62 C-15.66 62 -16.32 62 -17 62 C-17 62.66 -17 63.32 -17 64 C-17.66 64 -18.32 64 -19 64 C-19 64.66 -19 65.32 -19 66 C-19.99 65.67 -20.98 65.34 -22 65 C-21.41992188 64.17757812 -20.83984375 63.35515625 -20.2421875 62.5078125 C-13.22111688 52.50738797 -13.22111688 52.50738797 -7 42 C-6.52433594 41.13632813 -6.04867187 40.27265625 -5.55859375 39.3828125 C-0.57710367 29.13598674 -0.96396369 18.23609021 -1.01953125 7.078125 C-1.002978 4.46933269 -0.78888712 2.46527224 0 0 Z " fill="#C7B396" transform="translate(171,117)"/>
<path d="M0 0 C0 0.66 0 1.32 0 2 C-1.32 2.33 -2.64 2.66 -4 3 C-4 3.66 -4 4.32 -4 5 C-32.93263641 15.1257877 -32.93263641 15.1257877 -47 17 C-47 16.01 -47 15.02 -47 14 C-45.84371094 13.92652344 -45.84371094 13.92652344 -44.6640625 13.8515625 C-43.66117188 13.77679688 -42.65828125 13.70203125 -41.625 13.625 C-40.62726562 13.55539062 -39.62953125 13.48578125 -38.6015625 13.4140625 C-35.84491121 13.23636036 -35.84491121 13.23636036 -34 11 C-31.375 10.875 -31.375 10.875 -29 11 C-29 10.34 -29 9.68 -29 9 C-25.86501708 7.14223235 -23.62528568 6.79859524 -20 7 C-20 6.34 -20 5.68 -20 5 C-16.97088197 2.5388416 -14.74528059 1.8307398 -10.9375 1.9375 C-6.5895401 2.00651524 -4.13378607 0 0 0 Z " fill="#CEBD8D" transform="translate(92,245)"/>
<path d="M0 0 C0.66 0 1.32 0 2 0 C-1.67852876 8.49866989 -9.26271317 17.51641492 -16.96484375 22.640625 C-19.4820087 24.32195591 -21.78087122 26.21056994 -24.125 28.125 C-25.74739404 29.41993836 -27.37212879 30.71195376 -29 32 C-29.58007812 32.46148437 -30.16015625 32.92296875 -30.7578125 33.3984375 C-34.22903338 35.96096181 -36.72910358 36.48532914 -41 36 C-41.66 35.67 -42.32 35.34 -43 35 C-43 34.34 -43 33.68 -43 33 C-42.09507812 32.80083984 -42.09507812 32.80083984 -41.171875 32.59765625 C-40.37265625 32.42105469 -39.5734375 32.24445313 -38.75 32.0625 C-37.96109375 31.88847656 -37.1721875 31.71445313 -36.359375 31.53515625 C-34.23121297 31.052444 -32.11467158 30.53836822 -30 30 C-30 29.34 -30 28.68 -30 28 C-25.61538462 25 -25.61538462 25 -23 25 C-23 24.34 -23 23.68 -23 23 C-22.34 23 -21.68 23 -21 23 C-21 22.34 -21 21.68 -21 21 C-20.34 21 -19.68 21 -19 21 C-19 20.34 -19 19.68 -19 19 C-16 17 -16 17 -13 17 C-13 16.34 -13 15.68 -13 15 C-12.34 15 -11.68 15 -11 15 C-11 14.01 -11 13.02 -11 12 C-10.34 12 -9.68 12 -9 12 C-9 11.01 -9 10.02 -9 9 C-8.34 9 -7.68 9 -7 9 C-7 8.34 -7 7.68 -7 7 C-6.34 7 -5.68 7 -5 7 C-5 6.34 -5 5.68 -5 5 C-4.34 5 -3.68 5 -3 5 C-3 4.34 -3 3.68 -3 3 C-2.34 3 -1.68 3 -1 3 C-0.67 2.01 -0.34 1.02 0 0 Z " fill="#CCBF91" transform="translate(181,187)"/>
<path d="M0 0 C5.93929328 0.37120583 10.42486651 2.0979896 15 6 C16.72276038 8.87317703 17.24712644 10.97701163 17.22705078 14.30957031 C17.22689972 15.15013977 17.22674866 15.99070923 17.22659302 16.85675049 C17.21627045 17.75480408 17.20594788 18.65285767 17.1953125 19.578125 C17.1924826 20.5046991 17.18965271 21.43127319 17.18673706 22.38592529 C17.17555611 25.34074909 17.15045527 28.29526805 17.125 31.25 C17.11496751 33.25520395 17.10584213 35.26041266 17.09765625 37.265625 C17.07562358 42.17720051 17.04110795 47.08854859 17 52 C15 50 15 50 14.75949097 48.16500854 C14.76393219 47.42332428 14.76837341 46.68164001 14.77294922 45.91748047 C14.77310028 45.07675995 14.77325134 44.23603943 14.77340698 43.36984253 C14.78372955 42.46146637 14.79405212 41.55309021 14.8046875 40.6171875 C14.8075174 39.68778351 14.81034729 38.75837952 14.81326294 37.80081177 C14.82447931 34.8254115 14.8495864 31.85030965 14.875 28.875 C14.88502792 26.86068142 14.8941541 24.84635814 14.90234375 22.83203125 C14.92442339 17.88790544 14.95896307 12.94400335 15 8 C13.35 8 11.7 8 10 8 C10 7.34 10 6.68 10 6 C8.02 5.34 6.04 4.68 4 4 C4 3.34 4 2.68 4 2 C2.35 2.66 0.7 3.32 -1 4 C-0.67 2.68 -0.34 1.36 0 0 Z " fill="#D0BF9F" transform="translate(119,105)"/>
<path d="M0 0 C3.49581163 6.77583241 2.8594995 11.00737052 0.68359375 18.125 C-0.00385991 21.01623369 -0.05047398 23.29843772 0.125 26.25 C0.35664078 31.65495144 -1.74791424 33.83065928 -5 38 C-4.72824893 40.16282109 -4.72824893 40.16282109 -4 42 C-4.99 42.495 -4.99 42.495 -6 43 C-6.495 41.515 -6.495 41.515 -7 40 C-7.99 40.66 -8.98 41.32 -10 42 C-10.33233873 36.18407224 -8.58298628 32.47873285 -5 28 C-2.72873545 24.59310318 -2.66527244 22.89736441 -2.4375 18.875 C-2.09808917 13.09808917 -2.09808917 13.09808917 -1 12 C-0.76572222 9.98405418 -0.58663876 7.961526 -0.4375 5.9375 C-0.35371094 4.83277344 -0.26992187 3.72804687 -0.18359375 2.58984375 C-0.12300781 1.73519531 -0.06242188 0.88054687 0 0 Z " fill="#B0905C" transform="translate(174,126)"/>
<path d="M0 0 C1.32 0 2.64 0 4 0 C3.83826325 0.72411922 3.67652651 1.44823843 3.50988865 2.19430065 C3.03078353 4.83061137 2.86260335 7.21708465 2.84178162 9.89118958 C2.8319928 10.8488623 2.82220398 11.80653503 2.81211853 12.79322815 C2.80636307 13.83188522 2.8006076 14.8705423 2.79467773 15.94067383 C2.78477814 17.04355743 2.77487854 18.14644104 2.76467896 19.28274536 C2.73311937 22.92415224 2.70832832 26.56557215 2.68359375 30.20703125 C2.66301945 32.73337643 2.64202285 35.25971821 2.62062073 37.78605652 C2.57108684 43.75345866 2.52580879 49.72087838 2.48259836 55.68832844 C2.43315289 62.48399314 2.37826196 69.27961046 2.32291877 76.07522929 C2.20922978 90.05010861 2.10236244 104.02503345 2 118 C1.67 118 1.34 118 1 118 C0.67 79.06 0.34 40.12 0 0 Z " fill="#D7C095" transform="translate(88,85)"/>
<path d="M0 0 C0.33 0 0.66 0 1 0 C1.09796875 0.98097656 1.1959375 1.96195313 1.296875 2.97265625 C2.07257246 10.14382696 3.12566164 16.93403455 5.125 23.875 C6.80688803 29.74914966 7.5155577 34.91355496 7 41 C7.66 41 8.32 41 9 41 C9 43.97 9 46.94 9 50 C8.01 50.495 8.01 50.495 7 51 C5.81651531 45.99262351 4.66028364 40.97993685 3.52709961 35.9609375 C3.13937381 34.26040265 2.74470885 32.56143243 2.3425293 30.86425781 C-0.18394899 20.17798012 -1.64846835 10.99054017 0 0 Z " fill="#EAE3AC" transform="translate(114,30)"/>
<path d="M0 0 C0.66 0.33 1.32 0.66 2 1 C2 2.32 2 3.64 2 5 C2.61875 5.0825 3.2375 5.165 3.875 5.25 C6 6 6 6 7.125 7.625 C8.25955932 10.70451815 9.11322511 13.84086445 10 17 C10.37125 17.845625 10.7425 18.69125 11.125 19.5625 C12.17321383 22.48252424 12.14320898 24.92100701 12 28 C12.66 28 13.32 28 14 28 C16.02558881 31.34939881 16.21738987 33.86962551 16.125 37.75 C16.10695312 38.73484375 16.08890625 39.7196875 16.0703125 40.734375 C16.04710937 41.48203125 16.02390625 42.2296875 16 43 C14.62933051 40.38918366 13.58255692 37.86935706 12.7265625 35.05078125 C10.7247707 28.90314015 8.02754717 23.07629288 5.375 17.1875 C4.37987116 14.97397623 3.38755809 12.75918384 2.3984375 10.54296875 C1.96192871 9.57383545 1.52541992 8.60470215 1.07568359 7.60620117 C0.15963063 5.38675828 -0.60353161 3.3656845 -1 1 C-0.67 0.67 -0.34 0.34 0 0 Z " fill="#C7B696" transform="translate(154,75)"/>
<path d="M0 0 C0.99 0.66 1.98 1.32 3 2 C2.37351563 2.24363281 1.74703125 2.48726562 1.1015625 2.73828125 C-1.51681999 4.31028412 -1.79870887 5.29548106 -2.625 8.1875 C-2.86089844 8.98414063 -3.09679687 9.78078125 -3.33984375 10.6015625 C-3.55769531 11.39304688 -3.77554688 12.18453125 -4 13 C-4.31130859 14.06347656 -4.31130859 14.06347656 -4.62890625 15.1484375 C-5.09970682 16.76167022 -5.55199478 18.38028882 -6 20 C-6.33 20 -6.66 20 -7 20 C-7.33 18.35 -7.66 16.7 -8 15 C-8.556875 15.639375 -9.11375 16.27875 -9.6875 16.9375 C-12.22066561 19.19680987 -13.68341424 19.63149047 -17 20 C-17 19.01 -17 18.02 -17 17 C-15.68 16.34 -14.36 15.68 -13 15 C-13 13.68 -13 12.36 -13 11 C-11.42578125 9.47265625 -11.42578125 9.47265625 -9.3125 8.0625 C-5.81267055 5.61945742 -2.92102406 3.10358807 0 0 Z " fill="#DACA9C" transform="translate(148,183)"/>
<path d="M0 0 C-2.22099236 2.4104442 -4.46940816 4.00248838 -7.30859375 5.62890625 C-8.13810547 6.10650391 -8.96761719 6.58410156 -9.82226562 7.07617188 C-10.68529297 7.56666016 -11.54832031 8.05714844 -12.4375 8.5625 C-13.29666016 9.05685547 -14.15582031 9.55121094 -15.04101562 10.06054688 C-17.35406898 11.38664961 -19.66672569 12.70979916 -22 14 C-23.03459351 14.6031604 -23.03459351 14.6031604 -24.09008789 15.21850586 C-26 16 -26 16 -29 15 C-27 12 -27 12 -24.4375 11.0625 C-23.633125 10.711875 -22.82875 10.36125 -22 10 C-21.67 8.68 -21.34 7.36 -21 6 C-15.555 5.01 -15.555 5.01 -10 4 C-10 3.34 -10 2.68 -10 2 C-6.5980513 -0.09350689 -3.94727588 -0.17942163 0 0 Z " fill="#D7CC94" transform="translate(144,223)"/>
<path d="M0 0 C0 0.66 0 1.32 0 2 C0.66 2 1.32 2 2 2 C1.67 2.99 1.34 3.98 1 5 C-0.65 5.33 -2.3 5.66 -4 6 C-4.33 6.99 -4.66 7.98 -5 9 C-10.28 9 -15.56 9 -21 9 C-20.34 8.67 -19.68 8.34 -19 8 C-19 7.34 -19 6.68 -19 6 C-17.68 6 -16.36 6 -15 6 C-15 5.01 -15 4.02 -15 3 C-13.9275 2.87625 -12.855 2.7525 -11.75 2.625 C-7.2901877 1.88169795 -4.54836454 0 0 0 Z " fill="#AC8D52" transform="translate(49,253)"/>
<path d="M0 0 C9.82865972 7.73745552 20.35775161 19.40537345 24.84375 31.22265625 C24.92109375 32.10244141 24.92109375 32.10244141 25 33 C24.34 33.66 23.68 34.32 23 35 C23 34.34 23 33.68 23 33 C22.34 33 21.68 33 21 33 C21 31.35 21 29.7 21 28 C20.34 28 19.68 28 19 28 C18.54625 26.865625 18.0925 25.73125 17.625 24.5625 C16.42904194 20.95278308 16.42904194 20.95278308 14 20 C14 19.01 14 18.02 14 17 C13.34 17 12.68 17 12 17 C12 16.34 12 15.68 12 15 C11.34 15 10.68 15 10 15 C10 14.34 10 13.68 10 13 C9.34 13 8.68 13 8 13 C8 11.68 8 10.36 8 9 C6.35 9 4.7 9 3 9 C2.67 7.35 2.34 5.7 2 4 C1.34 4 0.68 4 0 4 C0 2.68 0 1.36 0 0 Z " fill="#BEAA8B" transform="translate(162,57)"/>
<path d="M0 0 C7.66331719 1.00677274 14.74847707 2.2960423 22 5 C22 5.66 22 6.32 22 7 C19.74971671 6.85860519 17.49977794 6.71171997 15.25 6.5625 C13.37054688 6.44068359 13.37054688 6.44068359 11.453125 6.31640625 C8.80525686 6.07378485 6.55173053 5.63793263 4 5 C2.03177114 6.96822886 2.33751619 10.34808709 2 13 C0 11 0 11 -0.1953125 8.3984375 C-0.17210938 7.40070312 -0.14890625 6.40296875 -0.125 5.375 C-0.10695313 4.37210938 -0.08890625 3.36921875 -0.0703125 2.3359375 C-0.04710938 1.56507812 -0.02390625 0.79421875 0 0 Z " fill="#ECE1A4" transform="translate(112,16)"/>
<path d="M0 0 C0.33 0 0.66 0 1 0 C1.33 18.15 1.66 36.3 2 55 C2.33 55 2.66 55 3 55 C3 59.29 3 63.58 3 68 C2.34 68 1.68 68 1 68 C0.505 68.99 0.505 68.99 0 70 C0 46.9 0 23.8 0 0 Z " fill="#B69A5C" transform="translate(131,113)"/>
<path d="M0 0 C0 1.65 0 3.3 0 5 C-0.66 5 -1.32 5 -2 5 C-2.2165625 6.0828125 -2.2165625 6.0828125 -2.4375 7.1875 C-2.95833333 9.79166667 -3.47916667 12.39583333 -4 15 C-4.66 15 -5.32 15 -6 15 C-6 16.32 -6 17.64 -6 19 C-6.66 19 -7.32 19 -8 19 C-8 19.66 -8 20.32 -8 21 C-10 22.625 -10 22.625 -12 24 C-12.66 23.67 -13.32 23.34 -14 23 C-13.67 22.34 -13.34 21.68 -13 21 C-13.66 20.67 -14.32 20.34 -15 20 C-13.35 19.67 -11.7 19.34 -10 19 C-10 18.01 -10 17.02 -10 16 C-9.34 15.34 -8.68 14.68 -8 14 C-7.6709686 12.38577758 -7.40792545 10.7576017 -7.1875 9.125 C-6.50364305 5.30863704 -6.24084612 4.24672042 -3.4375 1.375 C-1 0 -1 0 0 0 Z " fill="#976E3A" transform="translate(193,160)"/>
<path d="M0 0 C0.99 0.33 1.98 0.66 3 1 C4.125 6.75 4.125 6.75 3 9 C3.66 9 4.32 9 5 9 C4.938125 9.928125 4.87625 10.85625 4.8125 11.8125 C4.79910569 15.15438037 5.4743185 17.93153902 6.4375 21.125 C8.27710365 27.36403314 8.70152139 33.52610196 9 40 C6.8480563 36.77208445 6.79913557 35.71599191 7 32 C6.34 32 5.68 32 5 32 C4.97421875 31.45214844 4.9484375 30.90429688 4.921875 30.33984375 C4.43116371 23.48103817 2.78726 17.17628193 0.83984375 10.61328125 C-0.01253402 6.94607455 -0.14924031 3.75026463 0 0 Z " fill="#E4DA97" transform="translate(116,39)"/>
<path d="M0 0 C0.66 0.33 1.32 0.66 2 1 C2 16.84 2 32.68 2 49 C1.67 49 1.34 49 1 49 C0.68858152 42.66493069 0.38637634 36.32947 0.09057617 29.99365234 C-0.01114142 27.83827764 -0.11496871 25.68300143 -0.22094727 23.52783203 C-0.37290153 20.43024789 -0.51726837 17.33238896 -0.66015625 14.234375 C-0.73351952 12.78886261 -0.73351952 12.78886261 -0.80836487 11.31414795 C-0.8484819 10.41351624 -0.88859894 9.51288452 -0.92993164 8.58496094 C-0.96768204 7.79442322 -1.00543243 7.0038855 -1.04432678 6.18939209 C-0.99946533 3.97359135 -0.62402181 2.11988072 0 0 Z " fill="#CAB699" transform="translate(104,94)"/>
<path d="M0 0 C5.01441603 0.151952 7.33354746 2.92701329 10.64453125 6.30859375 C12 8 12 8 12 10 C12.61875 10.20625 13.2375 10.4125 13.875 10.625 C16.84653645 12.54775888 17.13024659 14.66594527 18 18 C17.01 18 16.02 18 15 18 C15 17.34 15 16.68 15 16 C14.34 16 13.68 16 13 16 C13 15.01 13 14.02 13 13 C12.34 13 11.68 13 11 13 C11 12.34 11 11.68 11 11 C10.01 11 9.02 11 8 11 C7.71125 10.360625 7.4225 9.72125 7.125 9.0625 C6.17176549 6.84793921 6.17176549 6.84793921 4 6 C4 5.34 4 4.68 4 4 C3.01 4.33 2.02 4.66 1 5 C0.34 4.34 -0.32 3.68 -1 3 C-0.67 2.01 -0.34 1.02 0 0 Z " fill="#DED6B7" transform="translate(59,55)"/>
<path d="M0 0 C2.54055845 0.25552438 5.03852505 0.56707159 7.5625 0.9375 C8.27341797 1.03740234 8.98433594 1.13730469 9.71679688 1.24023438 C11.47856957 1.48853791 13.23938152 1.74364039 15 2 C15 3.32 15 4.64 15 6 C10.05 6.33 5.1 6.66 0 7 C-0.33 5.02 -0.66 3.04 -1 1 C-0.67 0.67 -0.34 0.34 0 0 Z " fill="#A08554" transform="translate(170,39)"/>
<path d="M0 0 C0.33 0.66 0.66 1.32 1 2 C0.36191406 2.18175781 -0.27617188 2.36351562 -0.93359375 2.55078125 C-1.75988281 2.80214844 -2.58617188 3.05351562 -3.4375 3.3125 C-4.26121094 3.55613281 -5.08492187 3.79976562 -5.93359375 4.05078125 C-6.61550781 4.36402344 -7.29742187 4.67726562 -8 5 C-8.33 5.99 -8.66 6.98 -9 8 C-9.99 8.33 -10.98 8.66 -12 9 C-12.33 9.66 -12.66 10.32 -13 11 C-16.3 10.67 -19.6 10.34 -23 10 C-16.48181644 4.29658938 -10.54610219 1.73673295 -2 1 C-1.34 0.67 -0.68 0.34 0 0 Z " fill="#DBCB92" transform="translate(88,231)"/>
<path d="M0 0 C2.3828125 0.0234375 2.3828125 0.0234375 5.125 0.375 C6.03507812 0.48585937 6.94515625 0.59671875 7.8828125 0.7109375 C8.58148438 0.80632813 9.28015625 0.90171875 10 1 C5.41724374 3.65188829 0.18730386 4.70560426 -4.88867188 6.05664062 C-5.62794922 6.26353516 -6.36722656 6.47042969 -7.12890625 6.68359375 C-7.79994385 6.86462646 -8.47098145 7.04565918 -9.16235352 7.23217773 C-12.52946051 8.63905318 -14.00538526 11.00807789 -16 14 C-16 11.69 -16 9.38 -16 7 C-14.68 7 -13.36 7 -12 7 C-12 6.34 -12 5.68 -12 5 C-11.30132812 4.80664062 -10.60265625 4.61328125 -9.8828125 4.4140625 C-8.97273437 4.15367188 -8.06265625 3.89328125 -7.125 3.625 C-6.22007812 3.36976562 -5.31515625 3.11453125 -4.3828125 2.8515625 C-1.85430274 2.1395685 -1.85430274 2.1395685 0 0 Z " fill="#C1AB8B" transform="translate(176,45)"/>
<path d="M0 0 C3.67016347 -0.52335055 4.84137434 -0.11602579 7.89453125 2.1171875 C8.87905239 3.02373985 9.85152027 3.94352966 10.8125 4.875 C11.31458984 5.33519531 11.81667969 5.79539062 12.33398438 6.26953125 C13.60507529 7.46280027 14.80856565 8.72718923 16 10 C16 10.66 16 11.32 16 12 C14.02 12 12.04 12 10 12 C10 11.01 10 10.02 10 9 C9.071875 8.7834375 9.071875 8.7834375 8.125 8.5625 C6 8 6 8 4 7 C4 5.35 4 3.7 4 2 C2.68 2 1.36 2 0 2 C0 1.34 0 0.68 0 0 Z " fill="#E9E0BD" transform="translate(88,83)"/>
<path d="M0 0 C-0.54269531 0.25394531 -1.08539063 0.50789062 -1.64453125 0.76953125 C-2.35996094 1.11371094 -3.07539062 1.45789063 -3.8125 1.8125 C-4.52019531 2.14894531 -5.22789063 2.48539063 -5.95703125 2.83203125 C-8.01680945 4.00960999 -9.34396216 5.32530258 -11 7 C-13.375 7.625 -13.375 7.625 -16 8 C-16.928125 8.185625 -17.85625 8.37125 -18.8125 8.5625 C-19.534375 8.706875 -20.25625 8.85125 -21 9 C-21 8.34 -21 7.68 -21 7 C-14.46929409 1.3102703 -8.68847864 -2.40719754 0 0 Z " fill="#E5DBA1" transform="translate(102,225)"/>
<path d="M0 0 C-0.33 1.32 -0.66 2.64 -1 4 C-2.32 4.33 -3.64 4.66 -5 5 C-5.144375 5.94875 -5.28875 6.8975 -5.4375 7.875 C-6 11 -6 11 -7 13 C-9.93230451 14.98128683 -12.51102321 16.35389319 -16 17 C-16 16.34 -16 15.68 -16 15 C-11.61538462 12 -11.61538462 12 -9 12 C-9.144375 11.13375 -9.28875 10.2675 -9.4375 9.375 C-8.86193995 4.93496534 -7.10044461 3.80899876 -3.7265625 1.1015625 C-2 0 -2 0 0 0 Z " fill="#DCD1A7" transform="translate(136,195)"/>
<path d="M0 0 C2.97493763 2.52392667 4.12278106 5.22448572 5.5625 8.8125 C5.97628906 9.82957031 6.39007813 10.84664062 6.81640625 11.89453125 C10.39053254 21.27218935 10.39053254 21.27218935 9 26 C6.97649676 22.96474514 6.67875982 21.80573798 6.375 18.3125 C6.30023438 17.50425781 6.22546875 16.69601563 6.1484375 15.86328125 C6.09945312 15.24839844 6.05046875 14.63351563 6 14 C5.34 14 4.68 14 4 14 C3.01 11.03 2.02 8.06 1 5 C0.67 5 0.34 5 0 5 C0 3.35 0 1.7 0 0 Z " fill="#BEAA91" transform="translate(187,91)"/>
<path d="M0 0 C9.64062772 -0.46837058 17.09349655 -0.14772718 26 4 C26 4.33 26 4.66 26 5 C23.69 5 21.38 5 19 5 C19 4.34 19 3.68 19 3 C18.27554688 3.09539063 17.55109375 3.19078125 16.8046875 3.2890625 C6.96250852 4.41763236 6.96250852 4.41763236 2 2 C1.34 1.34 0.68 0.68 0 0 Z " fill="#DECD93" transform="translate(122,22)"/>
<path d="M0 0 C1.921875 0.6171875 1.921875 0.6171875 4 2 C4.828125 4.8203125 4.828125 4.8203125 5.25 8.125 C5.39953125 9.22070312 5.5490625 10.31640625 5.703125 11.4453125 C5.80109375 12.28835937 5.8990625 13.13140625 6 14 C6.66 14 7.32 14 8 14 C8 15.32 8 16.64 8 18 C8.66 18.33 9.32 18.66 10 19 C10 19.99 10 20.98 10 22 C10.66 22.33 11.32 22.66 12 23 C12 23.66 12 24.32 12 25 C10.68 25 9.36 25 8 25 C7.34865075 23.43979133 6.70417036 21.87671421 6.0625 20.3125 C5.70285156 19.44238281 5.34320313 18.57226562 4.97265625 17.67578125 C4.0429688 15.11820735 3.45837375 12.6778677 3 10 C2.67 10 2.34 10 2 10 C2 8.35 2 6.7 2 5 C1.34 4.67 0.68 4.34 0 4 C0 2.68 0 1.36 0 0 Z " fill="#B4975D" transform="translate(158,76)"/>
<path d="M0 0 C3.16490841 0.52748474 4.1142144 0.9856192 6 3.5 C3.3401439 6.94216672 0.09711714 7.49504674 -4 8.5 C-4 7.84 -4 7.18 -4 6.5 C-4.66 6.17 -5.32 5.84 -6 5.5 C-3.81081081 0.63513514 -3.81081081 0.63513514 0 0 Z " fill="#EBE6B0" transform="translate(111,234.5)"/>
<path d="M0 0 C0.66 0 1.32 0 2 0 C2 0.99 2 1.98 2 3 C1.34 3 0.68 3 0 3 C0 4.98 0 6.96 0 9 C-0.66 9 -1.32 9 -2 9 C-2 9.66 -2 10.32 -2 11 C-2.66 11 -3.32 11 -4 11 C-4 11.66 -4 12.32 -4 13 C-4.66 13 -5.32 13 -6 13 C-6 13.66 -6 14.32 -6 15 C-6.66 15 -7.32 15 -8 15 C-8 15.66 -8 16.32 -8 17 C-8.99 16.67 -9.98 16.34 -11 16 C-10.37351563 15.09636719 -9.74703125 14.19273437 -9.1015625 13.26171875 C-8.27602781 12.0703221 -7.45050774 10.87891532 -6.625 9.6875 C-6.2125 9.09259766 -5.8 8.49769531 -5.375 7.88476562 C-3.56307623 5.26916598 -1.76504945 2.64757418 0 0 Z " fill="#D3C3A2" transform="translate(160,166)"/>
<path d="M0 0 C0.66 0 1.32 0 2 0 C1.71890887 1.64767247 1.42481474 3.29313145 1.125 4.9375 C0.96257812 5.85402344 0.80015625 6.77054688 0.6328125 7.71484375 C0.42398438 8.46894531 0.21515625 9.22304687 0 10 C-0.99 10.495 -0.99 10.495 -2 11 C-2.33 9.35 -2.66 7.7 -3 6 C-3.556875 6.639375 -4.11375 7.27875 -4.6875 7.9375 C-7.22066561 10.19680987 -8.68341424 10.63149047 -12 11 C-12 10.01 -12 9.02 -12 8 C-8.79192446 5.61685817 -5.93619738 4.56231391 -2 4 C-2 3.34 -2 2.68 -2 2 C-1.34 2 -0.68 2 0 2 C0 1.34 0 0.68 0 0 Z " fill="#D5C180" transform="translate(143,192)"/>
<path d="M0 0 C1.65 0.33 3.3 0.66 5 1 C5 1.33 5 1.66 5 2 C7.97 2.495 7.97 2.495 11 3 C10.67 3.99 10.34 4.98 10 6 C4.72 6 -0.56 6 -6 6 C-5.34 5.67 -4.68 5.34 -4 5 C-4 4.34 -4 3.68 -4 3 C-2.68 3 -1.36 3 0 3 C0 2.01 0 1.02 0 0 Z " fill="#B79C73" transform="translate(34,256)"/>
<path d="M0 0 C2.64 0 5.28 0 8 0 C8 0.66 8 1.32 8 2 C10.64 2 13.28 2 16 2 C15.01 2.495 15.01 2.495 14 3 C14 3.66 14 4.32 14 5 C15.65 5 17.3 5 19 5 C19 5.66 19 6.32 19 7 C16.69 7.33 14.38 7.66 12 8 C12 7.01 12 6.02 12 5 C11.01 5 10.02 5 9 5 C9 4.34 9 3.68 9 3 C4.545 2.01 4.545 2.01 0 1 C0 0.67 0 0.34 0 0 Z " fill="#CDBE8B" transform="translate(133,25)"/>
<path d="M0 0 C0.66 0 1.32 0 2 0 C0.70944264 2.74967731 -0.71084296 5.07873302 -2.6015625 7.453125 C-3.33632812 8.38125 -3.33632812 8.38125 -4.0859375 9.328125 C-4.59382812 9.96234375 -5.10171875 10.5965625 -5.625 11.25 C-6.140625 11.8996875 -6.65625 12.549375 -7.1875 13.21875 C-8.45514179 14.81503967 -9.72714361 16.40786526 -11 18 C-11.66 17.67 -12.32 17.34 -13 17 C-13 16.34 -13 15.68 -13 15 C-12.34 15 -11.68 15 -11 15 C-11 14.01 -11 13.02 -11 12 C-10.34 12 -9.68 12 -9 12 C-9 11.01 -9 10.02 -9 9 C-8.34 9 -7.68 9 -7 9 C-7 8.34 -7 7.68 -7 7 C-6.34 7 -5.68 7 -5 7 C-5 6.34 -5 5.68 -5 5 C-4.34 5 -3.68 5 -3 5 C-3 4.34 -3 3.68 -3 3 C-2.34 3 -1.68 3 -1 3 C-0.67 2.01 -0.34 1.02 0 0 Z " fill="#C5B08E" transform="translate(181,187)"/>
<path d="M0 0 C1.4606285 2.64738916 2 3.89448334 2 7 C2.66 7.33 3.32 7.66 4 8 C4.625 11.0625 4.625 11.0625 5 14 C5.66 14 6.32 14 7 14 C7 14.66 7 15.32 7 16 C5.35 16 3.7 16 2 16 C1.67 14.35 1.34 12.7 1 11 C0.34 11 -0.32 11 -1 11 C-1.14285714 3.57142857 -1.14285714 3.57142857 0 0 Z " fill="#D8D09D" transform="translate(123,76)"/>
<path d="M0 0 C0.33 0 0.66 0 1 0 C1.02505615 0.68626465 1.0501123 1.3725293 1.07592773 2.07958984 C1.19171427 5.17825817 1.31451885 8.27660923 1.4375 11.375 C1.47681641 12.45523438 1.51613281 13.53546875 1.55664062 14.6484375 C1.59853516 15.6796875 1.64042969 16.7109375 1.68359375 17.7734375 C1.72025146 18.72653809 1.75690918 19.67963867 1.79467773 20.66162109 C1.85763465 23.02132349 1.85763465 23.02132349 3 25 C1.87926138 25.83905565 0.75325453 26.67107831 -0.375 27.5 C-1.00148438 27.9640625 -1.62796875 28.428125 -2.2734375 28.90625 C-4 30 -4 30 -6 30 C-6 29.34 -6 28.68 -6 28 C-5.34 28 -4.68 28 -4 28 C-4 27.01 -4 26.02 -4 25 C-2.68 25 -1.36 25 0 25 C0 16.75 0 8.5 0 0 Z " fill="#E5CE89" transform="translate(69,203)"/>
<path d="M0 0 C-1.76537096 1.17491582 -3.53749713 2.33968684 -5.3125 3.5 C-6.29863281 4.1496875 -7.28476563 4.799375 -8.30078125 5.46875 C-11 7 -11 7 -14 7 C-14.33 5.02 -14.66 3.04 -15 1 C-14.01 1.495 -14.01 1.495 -13 2 C-13 2.66 -13 3.32 -13 4 C-11.68 3.67 -10.36 3.34 -9 3 C-9 2.34 -9 1.68 -9 1 C-3.375 -1.125 -3.375 -1.125 0 0 Z " fill="#E2D4AA" transform="translate(103,209)"/>
<path d="M0 0 C6.6 0 13.2 0 20 0 C17.23737632 2.76262368 15.02937912 2.61811333 11.1875 3.125 C9.96417969 3.29257812 8.74085937 3.46015625 7.48046875 3.6328125 C4.61117192 3.93552171 1.87936222 4.07678299 -1 4 C-0.34 3.34 0.32 2.68 1 2 C0.67 1.34 0.34 0.68 0 0 Z " fill="#C6B498" transform="translate(24,261)"/>
<path d="M0 0 C-1.32 0.33 -2.64 0.66 -4 1 C-4 1.99 -4 2.98 -4 4 C-5.32 4 -6.64 4 -8 4 C-8 4.66 -8 5.32 -8 6 C-10.66666667 7.33333333 -13.33333333 8.66666667 -16 10 C-16.33 8.68 -16.66 7.36 -17 6 C-14.03 5.01 -11.06 4.02 -8 3 C-8 2.34 -8 1.68 -8 1 C-5.07175348 0.02391783 -3.04386724 -0.08226668 0 0 Z " fill="#D0BAA4" transform="translate(38,255)"/>
<path d="M0 0 C2.01822917 0.06510417 4.03645833 0.13020833 6.0546875 0.1953125 C2.52345746 2.54946586 -0.94416021 3.35020983 -5.0078125 4.3203125 C-5.74064453 4.50207031 -6.47347656 4.68382812 -7.22851562 4.87109375 C-12.64984727 6.1953125 -12.64984727 6.1953125 -14.9453125 6.1953125 C-14.9453125 5.2053125 -14.9453125 4.2153125 -14.9453125 3.1953125 C-14.17445312 3.14632813 -13.40359375 3.09734375 -12.609375 3.046875 C-11.60648438 2.97210938 -10.60359375 2.89734375 -9.5703125 2.8203125 C-8.57257812 2.75070312 -7.57484375 2.68109375 -6.546875 2.609375 C-3.52298995 2.128096 -2.88836608 0.28999659 0 0 Z " fill="#D1C29F" transform="translate(59.9453125,255.8046875)"/>
<path d="M0 0 C0.66 0 1.32 0 2 0 C2.06058594 0.77085938 2.12117188 1.54171875 2.18359375 2.3359375 C2.26738281 3.33882812 2.35117188 4.34171875 2.4375 5.375 C2.55931641 6.87160156 2.55931641 6.87160156 2.68359375 8.3984375 C2.84965626 10.97927613 2.84965626 10.97927613 4 13 C4.06950541 14.54023996 4.08452357 16.08334988 4.0625 17.625 C4.05347656 18.44226563 4.04445313 19.25953125 4.03515625 20.1015625 C4.02355469 20.72804688 4.01195313 21.35453125 4 22 C0.16733119 14.54400983 -0.26998981 8.29468686 0 0 Z " fill="#F5EDBA" transform="translate(110,16)"/>
<path d="M0 0 C0.33 0.99 0.66 1.98 1 3 C-0.14453125 4.5078125 -0.14453125 4.5078125 -1.8125 6.125 C-5.43303963 10.04795129 -6.3160378 13.7995288 -7 19 C-8.32 19.33 -9.64 19.66 -11 20 C-10.566875 18.9790625 -10.566875 18.9790625 -10.125 17.9375 C-8.90487923 14.98676637 -8.90487923 14.98676637 -8.3125 11.6875 C-6.56624572 6.78135702 -3.58708513 3.69258763 0 0 Z " fill="#D5CB92" transform="translate(138,71)"/>
<path d="M0 0 C0.33 0.99 0.66 1.98 1 3 C0.34 3 -0.32 3 -1 3 C-1 4.32 -1 5.64 -1 7 C-1.66 7 -2.32 7 -3 7 C-3 7.66 -3 8.32 -3 9 C-5 10.625 -5 10.625 -7 12 C-7.66 11.67 -8.32 11.34 -9 11 C-8.67 10.34 -8.34 9.68 -8 9 C-8.66 8.67 -9.32 8.34 -10 8 C-8.35 7.67 -6.7 7.34 -5 7 C-5 6.01 -5 5.02 -5 4 C-2.5 1.8125 -2.5 1.8125 0 0 Z " fill="#9F7C4A" transform="translate(188,172)"/>
<path d="M0 0 C1.26694663 2.28050393 2.01923072 4.10336512 2.5 6.6875 C2.665 7.450625 2.83 8.21375 3 9 C3.66 9.33 4.32 9.66 5 10 C5 12.97 5 15.94 5 19 C4.34 19.33 3.68 19.66 3 20 C2.49219106 17.79344925 1.99408635 15.58466395 1.5 13.375 C1.08234375 11.53035156 1.08234375 11.53035156 0.65625 9.6484375 C0.05908379 6.32847772 -0.12409534 3.36091549 0 0 Z " fill="#E3DBB9" transform="translate(118,61)"/>
<path d="M0 0 C0.99 0.33 1.98 0.66 3 1 C3 2.32 3 3.64 3 5 C3.02320313 5.89976563 3.04640625 6.79953125 3.0703125 7.7265625 C3.08835938 8.68304688 3.10640625 9.63953125 3.125 10.625 C3.14820313 11.58664063 3.17140625 12.54828125 3.1953125 13.5390625 C3 16 3 16 1 18 C-0.2039337 14.24600202 -0.09877617 10.66782588 -0.0625 6.75 C-0.05347656 5.48671875 -0.04445312 4.2234375 -0.03515625 2.921875 C-0.02355469 1.95765625 -0.01195312 0.9934375 0 0 Z " fill="#AB8A4F" transform="translate(172,107)"/>
<path d="M0 0 C4.97306516 0.49730652 8.63799813 1.55302334 13 4 C13 4.99 13 5.98 13 7 C12.34 7 11.68 7 11 7 C11 6.34 11 5.68 11 5 C8.69 4.67 6.38 4.34 4 4 C4 3.34 4 2.68 4 2 C2.35 2.66 0.7 3.32 -1 4 C-0.67 2.68 -0.34 1.36 0 0 Z " fill="#D1CAAE" transform="translate(119,105)"/>
<path d="M0 0 C1.32 0.33 2.64 0.66 4 1 C5.69832609 6.83799592 6.25287193 11.93107371 6 18 C5.67 18 5.34 18 5 18 C4.34 15.36 3.68 12.72 3 10 C2.67 10 2.34 10 2 10 C1.34 6.7 0.68 3.4 0 0 Z " fill="#EEE7BB" transform="translate(115,52)"/>
<path d="M0 0 C1.65 0.33 3.3 0.66 5 1 C5 1.66 5 2.32 5 3 C3.02 3.66 1.04 4.32 -1 5 C-1 5.66 -1 6.32 -1 7 C-1.66 7 -2.32 7 -3 7 C-3 7.66 -3 8.32 -3 9 C-3.66 9 -4.32 9 -5 9 C-5 9.66 -5 10.32 -5 11 C-5.99 10.67 -6.98 10.34 -8 10 C-7.67 9.34 -7.34 8.68 -7 8 C-6.34 8 -5.68 8 -5 8 C-4.67 7.01 -4.34 6.02 -4 5 C-3.34 5 -2.68 5 -2 5 C-1.34 3.35 -0.68 1.7 0 0 Z " fill="#B59B61" transform="translate(163,201)"/>
<path d="M0 0 C6.04801071 0.54981916 11.30601106 1.90429574 17 4 C17 4.66 17 5.32 17 6 C12.71 5.34 8.42 4.68 4 4 C4 3.34 4 2.68 4 2 C2.68 2 1.36 2 0 2 C0 1.34 0 0.68 0 0 Z " fill="#EAE1C0" transform="translate(117,17)"/>
<path d="M0 0 C0 0.66 0 1.32 0 2 C-1.32 2.33 -2.64 2.66 -4 3 C-4 3.66 -4 4.32 -4 5 C-8.32734391 7.22923777 -11.28400182 6.92470553 -16 6 C-16 5.67 -16 5.34 -16 5 C-14.9275 4.896875 -13.855 4.79375 -12.75 4.6875 C-9.08441408 4.01547592 -7.70253227 3.40225091 -5 1 C-3 0 -3 0 0 0 Z " fill="#D9CC92" transform="translate(92,245)"/>
<path d="M0 0 C-1.4638611 4.39158329 -3.97831338 4.87947433 -8 7 C-8 7.33 -8 7.66 -8 8 C-10.31 8 -12.62 8 -15 8 C-11.0826156 4.57228865 -5.47848189 0 0 0 Z " fill="#DACAA8" transform="translate(80,233)"/>
<path d="M0 0 C0.33 0.66 0.66 1.32 1 2 C1.66 2 2.32 2 3 2 C3 2.66 3 3.32 3 4 C3.66 4 4.32 4 5 4 C5 4.66 5 5.32 5 6 C5.66 6 6.32 6 7 6 C7.66 8.31 8.32 10.62 9 13 C8.01 13 7.02 13 6 13 C5.67 12.01 5.34 11.02 5 10 C4.34 9.401875 3.68 8.80375 3 8.1875 C0.53883472 5.49560047 0.32480368 3.57284046 0 0 Z " fill="#AA8C58" transform="translate(169,68)"/>
<path d="M0 0 C2.82630897 1.03631329 3.81090529 1.60080006 5.125 4.375 C5.41375 5.24125 5.7025 6.1075 6 7 C6.65213539 8.34050052 7.31379969 9.67661368 8 11 C6.68 11 5.36 11 4 11 C4 10.01 4 9.02 4 8 C3.34 8 2.68 8 2 8 C2 6.68 2 5.36 2 4 C1.34 4 0.68 4 0 4 C0 2.68 0 1.36 0 0 Z " fill="#E1D7AC" transform="translate(34,26)"/>
<path d="M0 0 C2.00720923 0.28674418 4.0085944 0.61866701 6 1 C5.67 1.99 5.34 2.98 5 4 C5.33 4.99 5.66 5.98 6 7 C4.02 7 2.04 7 0 7 C-0.38133299 5.0085944 -0.71325582 3.00720923 -1 1 C-0.67 0.67 -0.34 0.34 0 0 Z " fill="#AA884D" transform="translate(170,39)"/>
<path d="M0 0 C1.0828125 0.37125 1.0828125 0.37125 2.1875 0.75 C-0.8125 2.75 -0.8125 2.75 -2.8125 2.75 C-2.8125 3.41 -2.8125 4.07 -2.8125 4.75 C-4.1325 4.75 -5.4525 4.75 -6.8125 4.75 C-7.1425 7.06 -7.4725 9.37 -7.8125 11.75 C-8.8025 11.42 -9.7925 11.09 -10.8125 10.75 C-6.66804636 -0.59271523 -6.66804636 -0.59271523 0 0 Z " fill="#B89C68" transform="translate(166.8125,47.25)"/>
<path d="M0 0 C0.66 1.32 1.32 2.64 2 4 C2.66 4 3.32 4 4 4 C4 4.66 4 5.32 4 6 C4.66 6 5.32 6 6 6 C5.67 7.65 5.34 9.3 5 11 C1.125 6.25 1.125 6.25 0 4 C-1.32 4 -2.64 4 -4 4 C-3.67 3.01 -3.34 2.02 -3 1 C-2.01 0.67 -1.02 0.34 0 0 Z " fill="#CFC098" transform="translate(148,66)"/>
<path d="M0 0 C1.1055189 0.93590504 2.20935453 1.87379858 3.3125 2.8125 C3.92738281 3.33457031 4.54226562 3.85664062 5.17578125 4.39453125 C8.51952278 7.3373102 8.51952278 7.3373102 10 9 C10 9.66 10 10.32 10 11 C9.34 11 8.68 11 8 11 C8 10.34 8 9.68 8 9 C6.35 9 4.7 9 3 9 C2.67 7.35 2.34 5.7 2 4 C1.34 4 0.68 4 0 4 C0 2.68 0 1.36 0 0 Z " fill="#C1B495" transform="translate(162,57)"/>
<path d="M0 0 C0.66 0.99 1.32 1.98 2 3 C1.01 3 0.02 3 -1 3 C-1.33 3.99 -1.66 4.98 -2 6 C-2.66 6 -3.32 6 -4 6 C-4 6.66 -4 7.32 -4 8 C-6.31 8 -8.62 8 -11 8 C-7.45960866 5.0843836 -3.8373228 2.49872182 0 0 Z " fill="#EDE8B9" transform="translate(115,210)"/>
<path d="M0 0 C-0.67546875 0.23074219 -1.3509375 0.46148437 -2.046875 0.69921875 C-7.32395501 2.6285558 -10.94749592 4.00499332 -14 9 C-14 6.69 -14 4.38 -14 2 C-12.68 2 -11.36 2 -10 2 C-10 1.34 -10 0.68 -10 0 C-6.26432828 -0.76411467 -3.65188082 -1.07174763 0 0 Z " fill="#CCB796" transform="translate(174,50)"/>
<path d="M0 0 C0.928125 0.515625 1.85625 1.03125 2.8125 1.5625 C2.4825 2.8825 2.1525 4.2025 1.8125 5.5625 C-0.4975 5.5625 -2.8075 5.5625 -5.1875 5.5625 C-4.1975 5.2325 -3.2075 4.9025 -2.1875 4.5625 C-2.1875 3.2425 -2.1875 1.9225 -2.1875 0.5625 C-3.5075 0.2325 -4.8275 -0.0975 -6.1875 -0.4375 C-3.1875 -1.4375 -3.1875 -1.4375 0 0 Z " fill="#CEC2B1" transform="translate(187.1875,40.4375)"/>
<path d="M0 0 C0.99 0.33 1.98 0.66 3 1 C1.88407791 3.00507927 0.75701288 5.00396096 -0.375 7 C-1.31472656 8.670625 -1.31472656 8.670625 -2.2734375 10.375 C-2.84320313 11.24125 -3.41296875 12.1075 -4 13 C-4.66 13 -5.32 13 -6 13 C-6 12.34 -6 11.68 -6 11 C-5.34 11 -4.68 11 -4 11 C-4 9.68 -4 8.36 -4 7 C-3.34 7 -2.68 7 -2 7 C-2 5.68 -2 4.36 -2 3 C-1.34 3 -0.68 3 0 3 C0 2.01 0 1.02 0 0 Z " fill="#C0AA8E" transform="translate(189,172)"/>
<path d="M0 0 C2.58520412 5.17040824 3.43486689 8.2025502 2.0625 13.875 C1.711875 14.90625 1.36125 15.9375 1 17 C0.67 17 0.34 17 0 17 C0 11.39 0 5.78 0 0 Z " fill="#A7854C" transform="translate(174,126)"/>
<path d="M0 0 C0.66 0 1.32 0 2 0 C4.29612756 9.41002278 4.29612756 9.41002278 4 14 C4.66 14 5.32 14 6 14 C5.67 14.99 5.34 15.98 5 17 C4.34 16.67 3.68 16.34 3 16 C2.36182933 13.6954948 1.97962677 11.38503677 1.5625 9.03125 C1.376875 8.3609375 1.19125 7.690625 1 7 C0.34 6.67 -0.32 6.34 -1 6 C-0.67 4.02 -0.34 2.04 0 0 Z " fill="#9D7B50" transform="translate(191,105)"/>
<path d="M0 0 C2.31 0 4.62 0 7 0 C4.62622543 2.74858108 2.36768334 3.73711875 -1 5 C-1.99 5.66 -2.98 6.32 -4 7 C-4.66 6.34 -5.32 5.68 -6 5 C-4.68 4.67 -3.36 4.34 -2 4 C-2 3.34 -2 2.68 -2 2 C-1.34 2 -0.68 2 0 2 C0 1.34 0 0.68 0 0 Z " fill="#C2AC75" transform="translate(65,241)"/>
<path d="M0 0 C1.32 0.66 2.64 1.32 4 2 C2.54163185 5.84478875 0.63541701 7.1822915 -3 9 C-5.3125 9.6875 -5.3125 9.6875 -7 10 C-7 9.34 -7 8.68 -7 8 C-2.61538462 5 -2.61538462 5 0 5 C0 3.35 0 1.7 0 0 Z " fill="#DED291" transform="translate(127,202)"/>
<path d="M0 0 C1.65 0 3.3 0 5 0 C5 0.66 5 1.32 5 2 C4.34 2 3.68 2 3 2 C3 6.62 3 11.24 3 16 C2.67 16 2.34 16 2 16 C1.93941406 15.26394531 1.87882812 14.52789062 1.81640625 13.76953125 C1.73261719 12.79371094 1.64882813 11.81789063 1.5625 10.8125 C1.48128906 9.84957031 1.40007813 8.88664062 1.31640625 7.89453125 C1.02333849 5.21350398 0.57296246 2.6337014 0 0 Z " fill="#D0B594" transform="translate(58,59)"/>
<path d="M0 0 C2.07196631 0.73178866 4.1108552 1.55899003 6.125 2.4375 C7.22070312 2.91058594 8.31640625 3.38367188 9.4453125 3.87109375 C10.28835937 4.24363281 11.13140625 4.61617187 12 5 C8.52176885 6.15941038 6.54104422 5.70820884 3 5 C3 4.34 3 3.68 3 3 C1.35 3 -0.3 3 -2 3 C-2 2.34 -2 1.68 -2 1 C-1.34 0.67 -0.68 0.34 0 0 Z " fill="#DCD0AE" transform="translate(149,27)"/>
<path d="M0 0 C0.33 0 0.66 0 1 0 C1 6.6 1 13.2 1 20 C0.01 20 -0.98 20 -2 20 C-1.84660156 19.33613281 -1.69320312 18.67226562 -1.53515625 17.98828125 C-0.89226979 14.39844078 -0.64966009 10.82204581 -0.4375 7.1875 C-0.39431641 6.49462891 -0.35113281 5.80175781 -0.30664062 5.08789062 C-0.20138547 3.39211314 -0.10027137 1.69607948 0 0 Z " fill="#AC9B86" transform="translate(199,130)"/>
<path d="M0 0 C0.99 0.66 1.98 1.32 3 2 C2.360625 2.268125 1.72125 2.53625 1.0625 2.8125 C-1.33131686 3.88667752 -1.33131686 3.88667752 -2 7 C-3.65 7.33 -5.3 7.66 -7 8 C-6.02133662 6.85373678 -5.04205413 5.70800212 -4.0625 4.5625 C-3.51722656 3.92441406 -2.97195312 3.28632813 -2.41015625 2.62890625 C-1.63204305 1.73008851 -0.84063472 0.84063472 0 0 Z " fill="#D3C29E" transform="translate(148,183)"/>
<path d="M0 0 C0.33 0 0.66 0 1 0 C1.24339186 5.47631692 0.01840125 7.47239812 -3 12 C-3.33 9.36 -3.66 6.72 -4 4 C-3.01 3.67 -2.02 3.34 -1 3 C-0.67 2.01 -0.34 1.02 0 0 Z " fill="#97774C" transform="translate(196,148)"/>
<path d="M0 0 C2.625 0.9375 2.625 0.9375 5 2 C2.01353231 3.99097846 -0.59687262 4.94124926 -4 6 C-4 5.34 -4 4.68 -4 4 C-3.34 4 -2.68 4 -2 4 C-2 3.01 -2 2.02 -2 1 C-1.34 0.67 -0.68 0.34 0 0 Z " fill="#D6CFA7" transform="translate(38,241)"/>
<path d="M0 0 C2 1 2 1 3.125 3.3125 C4 6 4 6 4 10 C3.01 9.67 2.02 9.34 1 9 C-0.4783226 6.04335481 -0.06032783 3.25770263 0 0 Z " fill="#C1AF8B" transform="translate(162,91)"/>
<path d="M0 0 C2.3125 -0.25 2.3125 -0.25 5 0 C6.8125 2 6.8125 2 8 4 C7.34 4 6.68 4 6 4 C6 4.99 6 5.98 6 7 C5.34 7 4.68 7 4 7 C4 5.35 4 3.7 4 2 C2.68 2 1.36 2 0 2 C0 1.34 0 0.68 0 0 Z " fill="#DDCFB3" transform="translate(88,83)"/>
<path d="M0 0 C1.32 0 2.64 0 4 0 C4.33 1.65 4.66 3.3 5 5 C5.99 5.33 6.98 5.66 8 6 C6.1875 6.6875 6.1875 6.6875 4 7 C2.25 5.5625 2.25 5.5625 1 4 C1.33 3.34 1.66 2.68 2 2 C1.34 2 0.68 2 0 2 C0 1.34 0 0.68 0 0 Z " fill="#B0985F" transform="translate(160,61)"/>
<path d="M0 0 C5.445 1.485 5.445 1.485 11 3 C9.02 3.99 9.02 3.99 7 5 C6.67 4.67 6.34 4.34 6 4 C3.67182036 3.63239269 1.3381615 3.29758419 -1 3 C-0.67 2.01 -0.34 1.02 0 0 Z " fill="#C5B294" transform="translate(173,36)"/>
<path d="M0 0 C3.96 1.32 7.92 2.64 12 4 C12 4.33 12 4.66 12 5 C9.69 5 7.38 5 5 5 C5 4.34 5 3.68 5 3 C3.02 3 1.04 3 -1 3 C-0.67 2.01 -0.34 1.02 0 0 Z " fill="#DFD7BB" transform="translate(136,22)"/>
<path d="M0 0 C-0.99 1.485 -0.99 1.485 -2 3 C-4.1640625 3.29296875 -4.1640625 3.29296875 -6.625 3.1875 C-7.44226562 3.16042969 -8.25953125 3.13335937 -9.1015625 3.10546875 C-9.72804687 3.07066406 -10.35453125 3.03585937 -11 3 C-7.48550811 -0.37391222 -4.73940561 -0.27342725 0 0 Z " fill="#BEA676" transform="translate(58,256)"/>
<path d="M0 0 C0 0.66 0 1.32 0 2 C-2.75924185 3.80411967 -3.88972103 4.0127245 -7.25 3.625 C-8.1575 3.41875 -9.065 3.2125 -10 3 C-6.88378718 -0.11621282 -4.21175599 -0.11383124 0 0 Z " fill="#C4AF87" transform="translate(45,252)"/>
<path d="M0 0 C0.66 0 1.32 0 2 0 C1.71890887 1.64767247 1.42481474 3.29313145 1.125 4.9375 C0.96257812 5.85402344 0.80015625 6.77054688 0.6328125 7.71484375 C0.42398438 8.46894531 0.21515625 9.22304687 0 10 C-0.99 10.495 -0.99 10.495 -2 11 C-2 8.03 -2 5.06 -2 2 C-1.34 2 -0.68 2 0 2 C0 1.34 0 0.68 0 0 Z " fill="#CEB770" transform="translate(143,192)"/>
<path d="M0 0 C0 0.66 0 1.32 0 2 C-0.66 2 -1.32 2 -2 2 C-2 2.99 -2 3.98 -2 5 C-2.66 5 -3.32 5 -4 5 C-4 5.99 -4 6.98 -4 8 C-4.66 8 -5.32 8 -6 8 C-6.33 6.35 -6.66 4.7 -7 3 C-2.25 0 -2.25 0 0 0 Z " fill="#AE925A" transform="translate(174,194)"/>
<path d="M0 0 C3.82097239 0.53069061 6.06171403 1.49701566 9 4 C6.03 4 3.06 4 0 4 C0 2.68 0 1.36 0 0 Z " fill="#B29266" transform="translate(34,256)"/>
<path d="M0 0 C-2.93828597 2.50298434 -5.17902761 3.46930939 -9 4 C-6.73455663 -1.01633889 -5.27613404 -1.24961069 0 0 Z " fill="#E0D9A1" transform="translate(124,235)"/>
<path d="M0 0 C0.66 0 1.32 0 2 0 C2 0.66 2 1.32 2 2 C1.34 2 0.68 2 0 2 C0 2.66 0 3.32 0 4 C0.66 4.33 1.32 4.66 2 5 C1.38125 5.28875 0.7625 5.5775 0.125 5.875 C-2.13325765 6.93720042 -2.13325765 6.93720042 -4 9 C-3.4739075 5.21213403 -2.61896089 2.82847776 0 0 Z " fill="#A89169" transform="translate(183,181)"/>
<path d="M0 0 C2.5 -0.375 2.5 -0.375 5 0 C5.66 0.99 6.32 1.98 7 3 C4.03 3 1.06 3 -2 3 C-1.34 2.01 -0.68 1.02 0 0 Z " fill="#D1BD7B" transform="translate(77,247)"/>
<path d="M0 0 C2.875 -0.125 2.875 -0.125 6 0 C6.66 0.66 7.32 1.32 8 2 C5.03 2.66 2.06 3.32 -1 4 C-0.67 2.68 -0.34 1.36 0 0 Z " fill="#F0E598" transform="translate(108,235)"/>
<path d="M0 0 C-1.12073862 0.83905565 -2.24674547 1.67107831 -3.375 2.5 C-4.00148438 2.9640625 -4.62796875 3.428125 -5.2734375 3.90625 C-7 5 -7 5 -9 5 C-9 4.34 -9 3.68 -9 3 C-8.34 3 -7.68 3 -7 3 C-7 2.01 -7 1.02 -7 0 C-3.98968256 -0.93423645 -3.13349732 -1.04449911 0 0 Z " fill="#DACFA9" transform="translate(72,228)"/>
<path d="M0 0 C1.98 0 3.96 0 6 0 C5.67 0.66 5.34 1.32 5 2 C4.34 2 3.68 2 3 2 C3 2.66 3 3.32 3 4 C1.35 4.66 -0.3 5.32 -2 6 C-1.34 4.02 -0.68 2.04 0 0 Z " fill="#C2AC6F" transform="translate(148,213)"/>
<path d="M0 0 C0.99 0.495 0.99 0.495 2 1 C2 1.66 2 2.32 2 3 C3.32 2.67 4.64 2.34 6 2 C6 2.99 6 3.98 6 5 C4.35 5.33 2.7 5.66 1 6 C0.67 4.02 0.34 2.04 0 0 Z " fill="#DBC7A7" transform="translate(88,210)"/>
<path d="M0 0 C0.33 0.66 0.66 1.32 1 2 C1.99 2.33 2.98 2.66 4 3 C2.625 5 2.625 5 1 7 C0.34 7 -0.32 7 -1 7 C-1.04254356 5.00045254 -1.04080783 2.99958364 -1 1 C-0.67 0.67 -0.34 0.34 0 0 Z " fill="#E6DCA7" transform="translate(126,184)"/>
<path d="M0 0 C2.29013653 3.4352048 2.17842973 4.985331 2 9 C0.35 8.67 -1.3 8.34 -3 8 C-3 7.34 -3 6.68 -3 6 C-2.01 6 -1.02 6 0 6 C0 4.02 0 2.04 0 0 Z " fill="#C8B882" transform="translate(123,184)"/>
<path d="M0 0 C0.99 0 1.98 0 3 0 C3.33 0.99 3.66 1.98 4 3 C1.36 4.98 -1.28 6.96 -4 9 C-2.75023244 5.34683329 -2.32901247 4.21934164 1 2 C0.67 1.34 0.34 0.68 0 0 Z " fill="#C7AF79" transform="translate(149,183)"/>
<path d="M0 0 C0.33 0 0.66 0 1 0 C1 1.65 1 3.3 1 5 C0.34 5 -0.32 5 -1 5 C-1.33 6.65 -1.66 8.3 -2 10 C-3.10773342 6.67679974 -2.93312508 5.30835256 -2 2 C-1.34 1.34 -0.68 0.68 0 0 Z " fill="#967449" transform="translate(192,160)"/>
<path d="M0 0 C0.33 0.66 0.66 1.32 1 2 C1.66 2 2.32 2 3 2 C3.33 4.31 3.66 6.62 4 9 C3.01 8.67 2.02 8.34 1 8 C0.67 5.36 0.34 2.72 0 0 Z " fill="#E5E1B6" transform="translate(114,44)"/>
<path d="M0 0 C-1.66666667 1.66666667 -3.33333333 3.33333333 -5 5 C-6.32 4.34 -7.64 3.68 -9 3 C-5.92807025 0.26939578 -4.09590633 -0.34132553 0 0 Z " fill="#CDBA81" transform="translate(80,237)"/>
<path d="M0 0 C1.32 0.33 2.64 0.66 4 1 C1.69 2.65 -0.62 4.3 -3 6 C-3 4.68 -3 3.36 -3 2 C-2.01 1.34 -1.02 0.68 0 0 Z " fill="#C9B895" transform="translate(165,204)"/>
<path d="M0 0 C1.5625 1.8125 1.5625 1.8125 3 4 C2.67 4.99 2.34 5.98 2 7 C1.34 6.67 0.68 6.34 0 6 C0 5.34 0 4.68 0 4 C-0.66 4 -1.32 4 -2 4 C-2 3.01 -2 2.02 -2 1 C-1.34 0.67 -0.68 0.34 0 0 Z " fill="#DBCAAA" transform="translate(74,67)"/>
<path d="M0 0 C1.65 0 3.3 0 5 0 C4.2884375 0.495 4.2884375 0.495 3.5625 1 C1.14208385 4.09813267 1.31801083 7.12026792 1 11 C0.67 11 0.34 11 0 11 C0 7.37 0 3.74 0 0 Z " fill="#BFAC8B" transform="translate(30,25)"/>
<path d="M0 0 C-1.65 1.65 -3.3 3.3 -5 5 C-5.66 4.67 -6.32 4.34 -7 4 C-7 3.01 -7 2.02 -7 1 C-4.53721199 -0.231394 -2.7204945 -0.07159196 0 0 Z " fill="#D4C9BC" transform="translate(28,260)"/>
<path d="M0 0 C0.33 1.32 0.66 2.64 1 4 C-1.31 3.67 -3.62 3.34 -6 3 C-6 2.34 -6 1.68 -6 1 C-4.02 0.67 -2.04 0.34 0 0 Z " fill="#CDB97E" transform="translate(144,219)"/>
<path d="M0 0 C0.99 0.66 1.98 1.32 3 2 C1.68 2.99 0.36 3.98 -1 5 C-2.32 4.34 -3.64 3.68 -5 3 C-3.35 2.01 -1.7 1.02 0 0 Z " fill="#ECE9B2" transform="translate(103,218)"/>
<path d="M0 0 C0.33 0 0.66 0 1 0 C1.66 3.3 2.32 6.6 3 10 C2.01 10 1.02 10 0 10 C-0.19412181 8.52168779 -0.38012131 7.04230684 -0.5625 5.5625 C-0.66691406 4.73878906 -0.77132812 3.91507812 -0.87890625 3.06640625 C-0.91886719 2.38449219 -0.95882812 1.70257813 -1 1 C-0.67 0.67 -0.34 0.34 0 0 Z " fill="#987A4D" transform="translate(188,95)"/>
<path d="M0 0 C1.32 0.66 2.64 1.32 4 2 C4 2.66 4 3.32 4 4 C2.02 4 0.04 4 -2 4 C-1.34 2.68 -0.68 1.36 0 0 Z " fill="#DCD0A9" transform="translate(100,91)"/>
<path d="M0 0 C0.66 0 1.32 0 2 0 C2 2.31 2 4.62 2 7 C1.01 6.67 0.02 6.34 -1 6 C-1.042721 4.33388095 -1.04063832 2.66617115 -1 1 C-0.67 0.67 -0.34 0.34 0 0 Z " fill="#CBBFA6" transform="translate(46,47)"/>
<path d="M0 0 C3.3 0.33 6.6 0.66 10 1 C5.46780033 3.26609984 3.82227075 2.92735976 -1 2 C-0.67 1.34 -0.34 0.68 0 0 Z " fill="#B49F7C" transform="translate(176,45)"/>
<path d="M0 0 C1.48117801 0.28127421 2.95993249 0.57533732 4.4375 0.875 C5.67306641 1.11863281 5.67306641 1.11863281 6.93359375 1.3671875 C7.61550781 1.57601562 8.29742187 1.78484375 9 2 C9.33 2.66 9.66 3.32 10 4 C6.14354879 4.22036864 3.50776784 3.60355101 0 2 C0 1.34 0 0.68 0 0 Z " fill="#CFC2A5" transform="translate(163,33)"/>
<path d="M0 0 C-1.125 1.5 -1.125 1.5 -3 3 C-6.1875 3.1875 -6.1875 3.1875 -9 3 C-6.38997624 -0.48003168 -4.1689578 -0.27793052 0 0 Z " fill="#B79D6A" transform="translate(54,250)"/>
<path d="M0 0 C0.33 0 0.66 0 1 0 C1 1.98 1 3.96 1 6 C-0.98 6.99 -0.98 6.99 -3 8 C-3.66 7.34 -4.32 6.68 -5 6 C-4.01 6 -3.02 6 -2 6 C-2 5.34 -2 4.68 -2 4 C-1.34 4 -0.68 4 0 4 C0 2.68 0 1.36 0 0 Z " fill="#CDBE9B" transform="translate(45,235)"/>
<path d="M0 0 C0.99 0 1.98 0 3 0 C2 3 2 3 -1 5 C-1.99 5 -2.98 5 -4 5 C-4 4.34 -4 3.68 -4 3 C-2.68 2.67 -1.36 2.34 0 2 C0 1.34 0 0.68 0 0 Z " fill="#DED8AA" transform="translate(129,229)"/>
<path d="M0 0 C2.625 0.9375 2.625 0.9375 5 2 C5 2.99 5 3.98 5 5 C4.34 5 3.68 5 3 5 C3 4.34 3 3.68 3 3 C1.35 3 -0.3 3 -2 3 C-2 2.34 -2 1.68 -2 1 C-1.34 0.67 -0.68 0.34 0 0 Z " fill="#DDD1B4" transform="translate(127,107)"/>
<path d="M0 0 C0.66 0.33 1.32 0.66 2 1 C1.67 4.3 1.34 7.6 1 11 C0.67 11 0.34 11 0 11 C-0.19406478 9.35492782 -0.38007935 7.70890406 -0.5625 6.0625 C-0.66691406 5.14597656 -0.77132812 4.22945313 -0.87890625 3.28515625 C-0.91886719 2.53105469 -0.95882812 1.77695313 -1 1 C-0.67 0.67 -0.34 0.34 0 0 Z " fill="#D1C09D" transform="translate(104,94)"/>
<path d="M0 0 C0.66 0 1.32 0 2 0 C2 0.66 2 1.32 2 2 C2.66 2 3.32 2 4 2 C3.67 3.32 3.34 4.64 3 6 C2.34 6 1.68 6 1 6 C0.67 4.02 0.34 2.04 0 0 Z " fill="#D7D6BD" transform="translate(124,96)"/>
<path d="M0 0 C0.99 0.33 1.98 0.66 3 1 C3 1.66 3 2.32 3 3 C3.66 3 4.32 3 5 3 C5 4.65 5 6.3 5 8 C4.34 8 3.68 8 3 8 C2.67 6.02 2.34 4.04 2 2 C1.34 2 0.68 2 0 2 C0 1.34 0 0.68 0 0 Z " fill="#9D7E4D" transform="translate(178,82)"/>
</svg>
